<?xml version="1.0" encoding="UTF-8"?>
<!-- Generator: Adobe Illustrator 21.0.0, SVG Export Plug-In . SVG Version: 6.00 Build 0)  -->
<svg version="1.1" id="Ebene_1" xmlns="http://www.w3.org/2000/svg" xmlns:xlink="http://www.w3.org/1999/xlink" width="116" height="106" x="0px" y="0px" viewBox="0 0 116 106.7" style="enable-background:new 0 0 116 106.7;" xml:space="preserve">
<style type="text/css">
	.st0{fill:#EE7C00;}
</style>
<g>
	<g>
		<path class="st0" d="M16.7,9.6c0.9,0.5,2.4,1.2,3.2,2.1c0.9,0.9,23.7,23.7,23.7,23.7s3.7-3.3,3.3-7.4L31.4,12.5    c-2.7-2.9-2.9-4.7-7-8.8c-4-4-13.4-6.1-20.5,1c-4.8,4.8-3.7,7-3.7,7C3.4,14.9,8.8,5.7,16.7,9.6"/>
		<path class="st0" d="M28.2,21.8l-7.9-7.9c-6,6-12.5,1.9-12.5,1.9s-0.7,0.6-1.2,1.6c0,0-0.7,2,1.2,4c1.8,1.8,5.7-1,13.7,7    c0,0-0.7-2.6,1.6-4.9C25.4,21.1,28.2,21.8,28.2,21.8"/>
		<path class="st0" d="M91.7,3.7c4-4,13.4-6.1,20.5,1c4.8,4.8,3.7,7,3.7,7c-3.3,3.3-8.7-6-16.6-2.1c-0.9,0.5-2.4,1.2-3.2,2    c-0.9,0.9-23.7,23.7-23.7,23.7s-3.7-3.3-3.3-7.4l15.5-15.5C87.3,9.6,87.5,7.8,91.7,3.7"/>
		<path class="st0" d="M108.2,15.8c0,0,0.7,0.6,1.2,1.6c0,0,0.7,2-1.2,4c-1.8,1.8-5.7-1-13.7,7c0,0,0.7-2.6-1.6-4.9    c-2.3-2.3-5.1-1.6-5.1-1.6l7.9-7.9C101.7,19.9,108.2,15.8,108.2,15.8"/>
		<path class="st0" d="M37.3,75.1L8.8,103.6c-0.7,0.7-0.7,1.8,0,2.5c0.7,0.7,1.8,0.7,2.5,0l31-31H37.3z"/>
		<path class="st0" d="M87.3,26.5c0.7-0.7,1.7-0.7,2.4,0c0.7,0.7,0.7,1.7,0,2.4c-0.7,0.7-1.7,0.7-2.4,0    C86.7,28.3,86.7,27.2,87.3,26.5 M84.4,38.5c4.2-4.2,7.4-7.4,7.4-7.4c1.8-1.8,1.8-4.8,0-6.7c-1.8-1.8-4.8-1.8-6.7,0L71.1,38.5H84.4    z"/>
		<path class="st0" d="M69.3,38.5c1.2-1.2,1.9-1.9,1.9-1.9s-3.6-3.5-3.5-7.1c-2.1,2.1-5.1,5.3-8.5,9H69.3z"/>
		<path class="st0" d="M26.3,75.1c-4.1,3.9-7.7,5.5-12.7,10.5C7.6,91.5,7,97,4,100.1c-2.2,2.2-4.7,3.8-3.8,4.7c1,1,3.5-0.1,6.6-3.2    c3.1-3.1,5.3-8.9,9.5-13.1c4.2-4.2,8.9-6,14.8-11.9c0.4-0.4,0.9-0.9,1.5-1.5H26.3z"/>
		<path class="st0" d="M56.8,38.5c-3.4-3.7-6.4-6.9-8.5-9c0.1,3.5-3.5,7.1-3.5,7.1s0.7,0.7,1.9,1.9H56.8z"/>
		<path class="st0" d="M26.3,26.5c0.7-0.7,1.7-0.7,2.4,0c0.7,0.7,0.7,1.7,0,2.4c-0.7,0.7-1.7,0.7-2.4,0    C25.6,28.3,25.6,27.2,26.3,26.5 M31.6,38.5h13.3l-14-14.1c-1.8-1.8-4.8-1.8-6.7,0c-1.8,1.8-1.8,4.8,0,6.7    C24.2,31.1,27.4,34.3,31.6,38.5"/>
		<path class="st0" d="M112,100.1c-3.1-3.1-3.7-8.6-9.6-14.5c-5-5-8.6-6.6-12.7-10.5h-6.4c0.6,0.6,1.1,1.1,1.5,1.5    c5.9,5.9,10.6,7.7,14.8,11.9c4.2,4.2,6.3,10,9.5,13.1c3.1,3.1,5.7,4.2,6.6,3.2C116.8,103.9,114.3,102.3,112,100.1"/>
		<path class="st0" d="M78.7,75.1h-5.1l31,31c0.7,0.7,1.8,0.7,2.5,0c0.7-0.7,0.7-1.8,0-2.5L78.7,75.1z"/>
		<path class="st0" d="M22.2,49.1c-0.3-1.6-0.5-2.8-0.6-3.9c-0.1,1.1-0.3,2.4-0.6,3.9l-0.1,0.4h1.4L22.2,49.1z M23.2,54l-0.4-2.2    h-2.3L20,54h-2.9l3.1-11.8h2.9l3,11.8H23.2z"/>
	</g>
	<polygon class="st0" points="27.1,54 27.1,42.1 30,42.1 30,51.5 33.7,51.5 33.7,54  "/>
	<polygon class="st0" points="38.5,44.6 38.5,54 35.7,54 35.7,44.6 33.3,44.6 33.3,42.1 40.9,42.1 40.9,44.6  "/>
	<polygon class="st0" points="42,54 42,42.1 48.9,42.1 48.9,44.6 44.8,44.6 44.8,46.6 47.5,46.6 47.5,49 44.8,49 44.8,51.6 49,51.6    49,54  "/>
	<g>
		<path class="st0" d="M54.2,44.4h-1.1v2.9h1.1c0.8,0,1.1-0.5,1.1-1.5C55.3,44.8,55,44.4,54.2,44.4 M55.3,54l-1.4-4.5h-0.8V54h-2.8    V42.1h4.1c2.1,0,3.7,1,3.7,3.6c0,1.5-0.6,2.5-1.6,3.1l1.7,5.1H55.3z"/>
		<path class="st0" d="M65.4,54l-1.7-3.4c-0.7-1.3-1.3-2.6-1.5-3.2c0.1,0.7,0.1,2.2,0.1,3.3V54h-2.7V42.1H62l1.5,2.7    c0.7,1.2,1.4,2.7,1.6,3.3C65,47.5,65,45.9,65,44.8v-2.7h2.7V54H65.4z"/>
		<path class="st0" d="M73.8,49.1c-0.3-1.6-0.5-2.8-0.6-3.9c-0.1,1.1-0.3,2.4-0.6,3.9l-0.1,0.4h1.4L73.8,49.1z M74.7,54l-0.4-2.2H72    L71.5,54h-2.9l3.1-11.8h2.9l3,11.8H74.7z"/>
	</g>
	<polygon class="st0" points="82.5,44.6 82.5,54 79.6,54 79.6,44.6 77.2,44.6 77.2,42.1 84.9,42.1 84.9,44.6  "/>
	<rect x="86" y="42.1" class="st0" width="2.9" height="11.8"/>
	<g>
		<path class="st0" d="M95.6,54h-2.8l-3-11.8h3l0.6,3.5c0.3,1.6,0.6,3.8,0.8,5c0.1-1.2,0.5-3.4,0.7-5l0.6-3.5h3L95.6,54z"/>
	</g>
	<rect x="1.8" y="59.4" class="st0" width="2.9" height="11.8"/>
	<g>
		<path class="st0" d="M12.2,71.3l-1.7-3.4c-0.7-1.3-1.3-2.6-1.5-3.2C9,65.3,9,66.8,9,67.9v3.3H6.3V59.4h2.5l1.5,2.7    c0.7,1.2,1.4,2.7,1.6,3.3c-0.1-0.6-0.1-2.3-0.1-3.4v-2.7h2.7v11.8H12.2z"/>
		<path class="st0" d="M19.5,71.4c-1.8,0-2.9-0.8-3.9-2.1l1.9-1.7c0.8,0.9,1.4,1.4,2,1.4c0.6,0,1-0.3,1-0.9c0-0.7-0.2-1.1-1.5-1.7    c-2.4-1-3.2-1.9-3.2-3.8c0-1.9,1.4-3.5,3.7-3.5c1.8,0,2.7,0.7,3.7,1.9l-2,1.8c-0.8-1-1.1-1.3-1.8-1.3c-0.5,0-0.8,0.4-0.8,0.8    c0,0.6,0.3,1,1.5,1.5c2.4,1,3.3,2,3.3,4C23.3,70.2,21.7,71.4,19.5,71.4"/>
	</g>
	<polygon class="st0" points="29.4,61.9 29.4,71.3 26.6,71.3 26.6,61.9 24.2,61.9 24.2,59.4 31.8,59.4 31.8,61.9  "/>
	<g>
		<path class="st0" d="M36.5,66.4c-0.3-1.6-0.5-2.8-0.6-3.9c-0.1,1.1-0.3,2.4-0.6,3.9l-0.1,0.4h1.4L36.5,66.4z M37.5,71.3L37,69.1    h-2.3l-0.4,2.2h-2.9l3.1-11.8h2.9l3,11.8H37.5z"/>
	</g>
	<polygon class="st0" points="41.4,71.3 41.4,59.4 44.2,59.4 44.2,68.8 47.9,68.8 47.9,71.3  "/>
	<polygon class="st0" points="49,71.3 49,59.4 51.8,59.4 51.8,68.8 55.5,68.8 55.5,71.3  "/>
	<g>
		<path class="st0" d="M61.4,66.4c-0.3-1.6-0.5-2.8-0.6-3.9c-0.1,1.1-0.3,2.4-0.6,3.9l-0.1,0.4h1.4L61.4,66.4z M62.4,71.3L62,69.1    h-2.3l-0.4,2.2h-2.9l3.1-11.8h2.9l3,11.8H62.4z"/>
	</g>
	<polygon class="st0" points="70.1,61.9 70.1,71.3 67.3,71.3 67.3,61.9 64.9,61.9 64.9,59.4 72.5,59.4 72.5,61.9  "/>
	<rect x="73.6" y="59.4" class="st0" width="2.9" height="11.8"/>
	<g>
		<path class="st0" d="M82.1,61.7c-0.9,0-1.3,0.8-1.3,3.7c0,2.9,0.5,3.7,1.3,3.7c0.9,0,1.3-0.8,1.3-3.7C83.4,62.5,83,61.7,82.1,61.7     M82.1,71.4c-2.7,0-4.2-1.9-4.2-6.1c0-4.2,1.6-6.1,4.2-6.1s4.2,1.9,4.2,6.1C86.3,69.5,84.7,71.4,82.1,71.4"/>
		<path class="st0" d="M93.5,71.3l-1.7-3.4c-0.7-1.3-1.3-2.6-1.5-3.2c0.1,0.7,0.1,2.2,0.1,3.3v3.3h-2.7V59.4h2.5l1.5,2.7    c0.7,1.2,1.4,2.7,1.6,3.3c-0.1-0.6-0.1-2.3-0.1-3.4v-2.7h2.7v11.8H93.5z"/>
	</g>
	<polygon class="st0" points="97.5,71.3 97.5,59.4 104.4,59.4 104.4,61.8 100.3,61.8 100.3,63.9 103,63.9 103,66.3 100.3,66.3    100.3,68.8 104.6,68.8 104.6,71.3  "/>
	<g>
		<path class="st0" d="M111.7,71.3l-1.7-3.4c-0.7-1.3-1.3-2.6-1.5-3.2c0.1,0.7,0.1,2.2,0.1,3.3v3.3h-2.7V59.4h2.5l1.5,2.7    c0.7,1.2,1.4,2.7,1.6,3.3c-0.1-0.6-0.1-2.3-0.1-3.4v-2.7h2.7v11.8H111.7z"/>
	</g>
</g>
</svg>