<svg xmlns="http://www.w3.org/2000/svg" viewBox="278.6 168.88 374.96 186.77" width="374.96" height="186.77"><defs><style>.cls-1{fill:#3c3d3b;}.cls-2{fill:#b11325;}.cls-3{fill:none;}</style></defs><path class="cls-1" d="M285.67,198.81c0-14.89,11.71-24.93,27.08-24.93a31.86,31.86,0,0,1,16.62,4.71v9.28a26.75,26.75,0,0,0-16.35-6c-10.73,0-18.62,6.86-18.62,17s7.89,17,18.62,17a27.1,27.1,0,0,0,16.35-6V219a31.86,31.86,0,0,1-16.62,4.71c-15.37,0-27.08-10-27.08-24.93"/><polygon class="cls-1" points="382.44 174.58 382.44 223.05 374.13 223.05 374.13 202.27 349.82 202.27 349.82 223.05 341.51 223.05 341.51 174.58 349.82 174.58 349.82 194.52 374.13 194.52 374.13 174.58 382.44 174.58"/><path class="cls-1" d="M463.23,195.56H480c4.92,0,7.9-2.29,7.9-7,0-4.37-3-6.31-7.9-6.31H463.23Zm9.9,7.68h-9.9v19.81h-8.31V174.58h25.34c9.76,0,16.13,5,16.13,13.84s-5.54,14.2-14.12,14.75c1.73,1.87,3.53,4.16,4.57,5.54l10.73,14.34h-10Z"/><polygon class="cls-1" points="324.73 232.31 308.87 265.89 292.95 232.31 283.6 232.31 307.28 281.47 310.53 281.47 334.07 232.31 324.73 232.31"/><polygon class="cls-1" points="350.61 239.99 350.61 250.94 376.86 250.94 376.86 258.48 350.61 258.48 350.61 273.09 378.38 273.09 378.38 280.78 342.3 280.78 342.3 232.31 378.38 232.31 378.38 239.99 350.61 239.99"/><path class="cls-1" d="M399,253.29h16.76c4.91,0,7.89-2.29,7.89-7,0-4.37-3-6.31-7.89-6.31H399Zm9.9,7.68H399v19.81h-8.31V232.31H416c9.77,0,16.14,5.05,16.14,13.84s-5.54,14.2-14.12,14.75c1.73,1.87,3.52,4.16,4.56,5.54l10.74,14.34h-10Z"/><path class="cls-1" d="M475.06,266.37c0-3.95-3.18-6.37-8.38-6.37H451v13.37h15.65c5.47,0,8.38-2.84,8.38-7m-24-26.65v12.87h15.24c4.49,0,7.2-2.28,7.2-6.5,0-3.74-2.77-6.37-7.27-6.37Zm32.75,27.55c0,8.1-6,13.51-16.2,13.51H442.72V232.31H467.3c9.14,0,14.68,5.26,14.68,12.6a12,12,0,0,1-6,10.73,11.94,11.94,0,0,1,7.75,11.63"/><path class="cls-1" d="M522.45,261.39,513.86,240l-8.65,21.4Zm3,7.68H502.16l-4.71,11.71h-8.86l20-48.47h10.45l20,48.47H530.2Z"/><polygon class="cls-1" points="590.05 232.31 590.05 281.47 586.8 281.47 555.57 243.45 555.57 280.78 547.26 280.78 547.26 232.31 557.3 232.31 581.75 262.57 581.75 232.31 590.05 232.31"/><path class="cls-1" d="M639.83,256.4c0-10.1-7-16.34-18.48-16.34H612v33h9.35c11.49,0,18.48-6.3,18.48-16.62m8.73,0c0,14.48-10.94,24.38-26.73,24.38H603.69V232.31h18.14c15.79,0,26.73,9.76,26.73,24.09"/><polygon class="cls-2" points="285.67 290.04 285.67 297.79 303.81 297.79 303.81 338.5 312.12 338.5 312.12 297.79 330.33 297.79 330.33 290.04 285.67 290.04"/><rect class="cls-2" x="338.63" y="290.04" width="8.31" height="48.47"/><path class="cls-2" d="M368.71,311h16.76c4.91,0,7.89-2.29,7.89-7,0-4.37-3-6.31-7.89-6.31H368.71Zm9.9,7.68h-9.9v19.81H360.4V290h25.34c9.77,0,16.14,5,16.14,13.84s-5.54,14.2-14.13,14.75c1.74,1.87,3.53,4.16,4.57,5.54l10.74,14.34H393Z"/><polygon class="cls-2" points="470.76 290.04 470.76 338.5 505.8 338.5 505.8 330.75 479.07 330.75 479.07 290.04 470.76 290.04"/><path class="cls-1" d="M418.68,173.88c-14.75,0-25.48,10.32-25.48,25s10.73,24.86,25.48,24.86,25.47-10.25,25.47-24.86S433.35,173.88,418.68,173.88Zm16.52,30.74a28.4,28.4,0,0,1-10.89,8.47,31.12,31.12,0,0,1-12.92,3,16.67,16.67,0,0,1-10.09-3.23,10.33,10.33,0,0,1-4.24-8.68,18.21,18.21,0,0,1,4.24-11.3,47.12,47.12,0,0,1,4.84-4.54,72.39,72.39,0,0,1,6.26-4.54,38.05,38.05,0,0,1,6.66-2.32,25.71,25.71,0,0,1,5.85-.7,19.48,19.48,0,0,1,10.7,3.43c2.68,1.88,3.43,9.08,3.43,9.08A20.66,20.66,0,0,1,435.2,204.62Z"/><path class="cls-2" d="M434.52,289.35c-14.75,0-25.48,10.31-25.48,25s10.73,24.86,25.48,24.86S460,329,460,314.34,449.19,289.35,434.52,289.35Zm17.15,31.08a28.53,28.53,0,0,1-10.9,8.47,31.08,31.08,0,0,1-12.91,3,16.73,16.73,0,0,1-10.09-3.23,10.33,10.33,0,0,1-4.24-8.68,18.19,18.19,0,0,1,4.24-11.3,46.05,46.05,0,0,1,4.84-4.54,68.71,68.71,0,0,1,6.25-4.54,38.41,38.41,0,0,1,6.67-2.32,25.67,25.67,0,0,1,5.85-.71,19.48,19.48,0,0,1,10.69,3.44c2.69,1.88,3.44,9.08,3.44,9.08C455.51,312.76,454.22,316.53,451.67,320.43Z"/></svg>
