<svg xmlns="http://www.w3.org/2000/svg" viewBox="0 0 1559.05 276.77">
    <g fill="#e2001a">
        <path d="M1326.57,223.15V51.86h-61.48v88.81l-74.86-88.81h-60.11V223.15h61.48v-86.1l74.85,86.1Z"/>
        <path d="M1026,155.1h-43l21.73-57.66Zm86.13,68.05L1046.77,51.86H965.88L900.52,223.15h57.73L967,200.07h74.74l8.78,23.08Z"/>
        <path d="M882.53,223.15V51.86h-59.7L762.47,119,702.1,51.86H642.41V223.15h61V133.07l59,63.37,59-63.37v90.08Z"/>
        <path d="M412,153.15V51.86H351.67v94.91c0,13.86-10.32,28.25-27.27,28.25s-27.27-14.39-27.27-28.25V51.86H236.82V153.15C236.82,208.21,294,226,324.4,226S412,208.21,412,153.15Z"/>
        <path d="M151.85,145.85v28.87s-7.91,2-27,2c-40.79,0-65.22-23.63-65.22-60.8s26.24-65.34,67-65.34a292.75,292.75,0,0,1,71.16,8.72l2.08-50.39C176.58,3,156.34,0,128.05,0,56.66,0,0,40.55,0,115.88S54.4,226.77,125.78,226.77c28.29,0,54.51-3.62,82.65-14.76V101.53H127.91v44.32Z"/>
        <path d="M617.86,106.07V51.86H435.44v54.21h60.38V223.15h61.67V106.07Z"/>
        <path d="M1559.05,223.15V51.86h-61.47v88.81l-74.85-88.81h-60.11V223.15h61.48v-86.1l74.85,86.1Z"/>
    </g>
</svg>
