<?xml version="1.0" encoding="utf-8"?>
<!-- Generator: Adobe Illustrator 19.2.1, SVG Export Plug-In . SVG Version: 6.00 Build 0)  -->
<svg version="1.1" id="layer" xmlns="http://www.w3.org/2000/svg" xmlns:xlink="http://www.w3.org/1999/xlink" x="0px" y="0px"
	 viewBox="0 0 652 652" style="enable-background:new 0 0 652 652;" xml:space="preserve">
<style type="text/css">
	.st0{fill:#ED1C24;}
</style>
<path class="st0" d="M506.9,464h40.9V335.1h-40.9V464z M549.4,397.9l29.8,66.1h41.5v-4.1l-29.8-63.6l28.5-57.1v-4.1h-39.8
	L549.4,397.9z M390.9,399.9c0,48.4,26.3,66.5,61.8,66.5c12.5,0,24.8-2.5,37.6-8.2l-7-27.5h-4.1c-7.8,3.3-13.1,4.9-20.3,4.9
	c-15.4,0-26.1-10.9-26.1-36.5c0-24.2,12.7-35.3,27.3-35.3c5.3,0,10.7,0.4,17,2.5h4.1l7-27.9c-11.1-4.1-22-5.8-32.8-5.8
	C421.1,332.6,390.9,352.7,390.9,399.9 M265.7,418.6c0,36.3,22.6,47.8,53.8,47.8c31.2,0,54.4-11.7,54.4-47.8v-83.5h-41.1v81.5
	c0,11.5-3.7,17-13.3,17c-8.2,0-12.9-5.3-12.9-17v-81.5h-40.9V418.6z M185.1,389.7v-25.9h6.8c9.4,0,14,5.1,14,12.3
	c0,8.2-4.7,13.5-14,13.5H185.1z M144.2,464h40.9v-46.4h3.7c6.6,0,8.2,5.1,11.5,14.8l10.9,31.6h40.6v-3.3l-14-35.3
	c-3.7-8.8-7.2-14.4-12.1-16.8c14-7.4,21.6-20.1,21.6-34.3c0-22.6-16-39.2-47.8-39.2h-55.2V464z M61.5,436v-25h10.9
	c9.4,0,14,4.5,14,11.9c0,7.8-4.9,13.1-14,13.1H61.5z M61.5,385.1V363h9c7.6,0,11.1,4.1,11.1,9.9c0,5.3-2.9,10.3-8.2,12.3H61.5z
	 M20.6,464h59.7c31.2,0,47-18.7,47-39.8c0-12.9-6.2-24.8-18.1-32c8.6-6.8,13.1-15.8,13.1-25.5c0-17.5-14.6-31.6-45.4-31.6H20.6V464z
	"/>
<path class="st0" d="M453.6,229.6h4.1l15.6-2.5l14.8-46.4v-4.1l-27.1,4.5l-7.4,44.3 M344.8,301.8c10.9,6.4,26.5,10.7,43.3,10.7
	c33.9,0,54.8-15.6,54.8-44.8c0-47.6-54.8-36.1-54.8-52.1c0-4.9,4.5-7.8,13.6-7.8c7.2,0,15.2,1.8,22.2,5.3h4.1l11.3-24.6
	c-10.3-6.1-25.9-9.8-40.4-9.8c-29.5,0-50.7,15.2-50.7,41.5c0,49.5,55.2,36.3,55.2,53.4c0,6.6-6.4,9.8-15.2,9.8c-9,0-19.5-2.3-28.1-7
	h-4.1L344.8,301.8z M219.8,310h40.4v-49.5l2.9,4.7l30,44.7h35.1V181.1h-40.2V231l-2.9-4.7l-30.2-45.2h-35.1V310z M85.3,310h40.4
	v-49.5l2.9,4.7l30,44.7h35.1V181.1h-40.2V231l-2.9-4.7l-30.2-45.2H85.3V310z M20.6,310h40.9V181.1H20.6V310z"/>
</svg>
