<?xml version="1.0" encoding="UTF-8"?>
<!DOCTYPE svg PUBLIC "-//W3C//DTD SVG 1.1//EN" "http://www.w3.org/Graphics/SVG/1.1/DTD/svg11.dtd">
<svg version="1.1" id="Ebene_1" xmlns="http://www.w3.org/2000/svg" xmlns:xlink="http://www.w3.org/1999/xlink" x="0px" y="0px" width="1000px" height="1000px" viewBox="0 0 1000 1000" enable-background="new 0 0 1000 1000" xml:space="preserve">
<rect x="0" y="0" fill="#B51621" width="1000" height="1000"/>
<g>
	<path fill="#FFFFFF" d="M720.732,113.161c2.857,2.144,5.715,5.714,7.859,9.999c1.43,2.857,2.857,6.428,3.57,9.286   c2.857-0.714,7.855-2.141,12.857-2.141c5,0,9.289,0.713,12.855,1.427c0.715-2.857,2.145-6.428,3.574-9.285   c2.141-4.285,5.002-7.855,7.855-10c0,0-10.715,1.427-17.145,12.143l-6.428-16.431l-6.428,16.431   C731.449,114.591,720.732,113.161,720.732,113.161z"/>
	<path fill="#FFFFFF" d="M881.447,237.447c4.285,0.714,9.287,2.144,15.715,1.427c7.141-0.713,10.715-1.427,14.287-2.141   c9.285-2.857,16.426-8.572,18.57-11.429l0,0c0,0-0.713-0.714-1.43-0.714c-3.568,0-10.713,0.714-15.711,0.714   c-10.717,0-22.859-2.144-31.432-4.285c0-0.717,0-0.717,0-1.43c0-3.571-2.143-7.142-5.713-7.858   c4.283-0.713,7.145-4.285,7.145-8.569c0-2.144-0.715-4.288-2.145-5.715c2.857,0,6.428-0.713,10-2.144   c6.428-2.144,10.002-4.285,13.568-5.715c8.576-4.998,13.574-12.856,15.004-15.714c0-0.713,0-1.427-0.717-0.713   c-2.857,0.713-9.998,3.571-15,4.284c-7.855,2.144-17.145,3.571-25,4.288c-1.426-2.144-4.287-2.857-6.428-2.857l0,0l0,0l0,0   c2.141-1.43,4.287-4.288,4.287-7.145c0-4.998-4.287-8.569-9.287-8.569l0,0l0,0c3.574-1.43,9.287-3.574,13.572-6.431   c3.57-2.141,7.143-4.284,8.572-6.428c3.57-3.571,5.715-7.855,6.428-10.713c0-0.713-0.713-1.43-1.43-0.713   c-2.145,1.427-5.711,3.571-8.572,5.711c-7.855,4.288-21.426,7.859-28.57,10.002c-2.143,0.713-4.283,0.713-6.428,1.427   c-9.285,2.144-17.141,4.288-20.715,9.286c-2.857,4.288,0,11.429,1.428,15c0,0,0,0.713,0.715,0.713c0,0.717,0.715,2.144,0.715,2.144   c1.43,4.284,1.43,15-2.145,22.859c-7.141,14.283-20.711,23.569-37.143,24.999c-11.428,0.714-15,0-17.143-1.43h-0.715   c0,0,0-9.999-0.713-23.569c2.857-1.431,5.002-2.857,7.143-4.288c2.143,1.43,6.428,2.857,11.428,2.857h0.715   c7.857,0,14.285-5.001,14.285-5.001l0,0l0,0c0,0-6.428-4.284-13.572-4.284h-0.713c-1.428,0-2.141,0-3.572,0.713   c5.715-5.715,10.713-12.143,13.574-19.285c0.713,0.713,2.141,0.713,2.854,0.713c1.43,0,2.861-1.427,2.861-2.857   c0.713-2.141-0.715-4.284-2.861-4.284c1.43-3.571,2.146-7.142,2.861-10.716c2.854-0.713,7.141-2.141,11.43-4.998   c5.711-5.001,7.855-12.859,7.855-12.859l0,0l0,0c0,0-7.855,0.716-13.57,5.714c-1.432,1.43-2.861,2.857-4.289,4.288   c0-0.713,0-2.144,0-2.857c0-11.429-2.857-22.858-8.57-32.858c1.43-2.144,4.283-6.428,4.283-11.429   c0.717-7.855-2.854-14.284-2.854-14.284l0,0l0,0c0,0-5.715,5.712-6.428,13.57c0,1.43,0,3.571,0,5.001   c-5.715-7.145-12.145-12.859-20.002-17.144c-1.43-2.144-4.285-4.284-7.145-6.428c-4.285-2.144-8.57-2.857-12.143-2.857   c-2.141,0-2.855,0-2.855,0l0,0l0,0l0,0l0,0c0.715,0.714,4.285,7.142,10.713,10.716c3.57,2.141,7.859,2.854,10.717,2.854   c6.428,3.574,12.139,8.572,17.141,14.287c-1.428-0.713-2.855-1.427-4.285-2.144c-2.145-0.713-4.285-0.713-7.145-0.713   c-4.285,0-7.855,1.43-7.855,1.43l0,0l0,0l0,0c0.713,0.714,5.002,6.428,12.143,8.569c2.145,0.717,4.287,0.717,7.143,0.717   c2.143,0,4.287,0,5.715-0.717c5,8.572,7.857,18.574,7.857,29.287c0-0.713-0.717-1.427-1.43-2.857   c-3.57-6.428-10.713-9.999-10.713-9.999h-0.717l0,0l0,0c0,0.713-0.713,7.855,2.861,14.287c2.854,4.285,6.428,7.142,8.568,8.569   c-2.141,14.287-9.283,26.43-19.998,35.001c0.713-2.144,1.426-4.288,2.141-6.428c1.43-7.858-2.141-15-2.141-15l0,0l0,0   c0,0-5.715,5.715-6.428,13.57c-0.715,5.001,0.713,10.002,1.426,12.143c-1.426,0.717-2.857,2.144-4.283,2.857   c-1.432-17.858-4.285-39.286-10-52.143c0-0.713-0.717-0.713-0.717-1.427c3.57,0,6.432-2.144,8.572-3.574   c0.713,0,0-0.714-0.713-0.714c-2.145,0-5.715,0.714-10.004,0l0,0l0,0h0.717c0,0,0,0,0.715,0c4.283-0.713,7.145-3.571,8.572-5.714   c0-0.714,0-0.714-0.715-0.714c-2.143,0.714-5,1.43-10.002,2.144c-2.141,0-4.283,0-7.855-0.714h-0.713h-0.717   c-3.57-0.716-7.143-0.716-10.713,0c-2.145,0-4.287,0.714-5.715,0.714s-2.857,0.713-3.574,1.427c-2.141,0-12.143,0.717-14.283,2.144   c-2.145,2.144,1.428,10.716,3.57,14.287c0.717-2.144,2.857-7.145,5.715-7.145c0,0,0.715,0,1.432,0   c0.713,0.717,1.426,1.43,2.141,2.144c1.426,2.144,3.572,5.001,15.717,5.714c1.426,0,4.283,0.714,5.711,2.144   c0.717,0.713,1.43,2.857,1.43,3.571c0,1.427-0.713,2.144-2.143,2.144c-0.715,0-1.432,0-2.145,0h-0.713   c-1.428,0-2.857-0.716-5.002-0.716h-0.713c-5.715,0-9.285,2.857-10.717,4.288c2.146-0.717,5.002-0.717,8.576-0.717h0.713   c0,2.857,0,5.001-0.713,7.858l0,0l0,0l0,0c0,0.713-0.717,2.144-0.717,3.571c-1.428,7.145-3.572,12.143-3.572,12.143   s3.572-2.857,6.43-7.855c0,0-2.141,11.426-5.715,19.285c-0.715,1.427-1.428,2.857-2.141,4.285   c-6.428-1.427-12.143-4.285-17.145-7.855c0.713-2.857,2.141-7.145,1.428-12.143c-1.428-7.858-6.428-13.573-6.428-13.573l0,0l0,0   c0,0-3.572,7.145-2.143,15c0,2.144,0.715,4.288,1.428,5.715c-9.998-8.572-17.145-21.429-19.285-34.999   c2.141-1.43,6.43-4.288,8.57-8.572c3.574-6.428,2.859-13.573,2.859-14.287l0,0l0,0l0,0c0,0-7.145,3.571-10.715,9.999   c0,0.717-0.715,1.431-0.715,2.144c0-9.999,2.855-19.999,7.855-28.57c1.432,0,3.574,0.713,5.715,0.713c2.857,0,5.002,0,7.143-0.713   c7.145-2.144,11.43-7.858,12.143-8.572l0,0l0,0l0,0c0,0-3.568-1.431-7.855-1.431c-2.857,0-5,0-7.143,0.717   c-1.43,0.714-2.859,1.427-4.287,2.141c5.002-5.715,10.717-10.712,17.145-14.283c2.857,0,6.428-0.717,10-2.857   c7.145-3.571,10.711-10.716,10.711-10.716l0,0l0,0l0,0c0,0-1.426,0-2.854,0c-2.859,0-7.857,0.713-11.43,2.857   c-3.57,1.43-5.715,4.287-7.855,6.428c-7.857,4.288-14.289,10.002-20,17.145c0-1.431,0-3.571,0-5.001   c-0.717-7.142-5.002-12.143-6.432-13.57l0,0l0,0l0,0c0,0-3.568,7.142-2.855,14.283c0.715,5.001,2.855,9.289,5.002,11.43   c-5.715,10.002-8.574,20.715-8.574,32.858c0,0.713,0,2.144,0,3.571c-1.428-1.427-2.855-3.571-4.285-4.998   c-5.715-5.001-13.574-5.715-13.574-5.715l0,0l0,0c0,0,2.148,7.855,7.859,12.856c3.57,3.571,8.572,5.001,11.43,5.715   c0.713,3.571,1.43,7.142,2.857,10.713c-0.715,0-1.428,0-2.145,0.716c-0.713,0.714-1.428,2.141-1.428,2.854   c0,2.144,1.428,3.574,3.572,3.574c0.713,0,1.426,0,2.141-0.716c3.574,7.145,8.574,14.287,14.289,19.288   c-9.289-5.001-10.715-5.001-12.143-5.001h-0.717c-6.428,0-12.143,3.571-13.57,4.288l0,0l0,0l0,0c0,0,6.428,4.998,14.287,4.998   h0.713c5.002,0,8.57-1.427,11.43-2.857c5.715,3.571,11.426,6.428,17.857,8.572c-2.146,2.857-3.574,5.001-3.574,5.001   s1.428-0.717,3.574-1.43c2.141-0.714,3.568-2.141,3.568-2.141l-3.568,7.855c0,0-0.717,0.713-0.717,1.43l0,0l0,0   c-1.43,2.141-2.857,4.998-4.998,9.286c-2.859,0.713-7.857,1.427-17.143,0.713c-17.145-1.43-30.715-10.716-37.143-24.999   c-3.574-8.572-3.574-18.571-2.145-22.859c0,0,0.713-1.427,0.713-2.144l0,0c0,0,0,0,0-0.714c1.432-3.571,4.285-9.999,1.432-15   c-3.574-4.998-12.143-7.142-20.715-9.286c-2.145-0.713-4.285-0.713-6.432-1.427c-7.143-2.144-20.713-5.714-28.566-10.002   c-2.861-1.427-6.432-4.285-8.576-5.712c-0.713-0.716-1.428,0-1.428,0.714c0.715,2.857,2.857,7.142,6.43,10.712   c1.426,1.43,5,4.288,8.572,6.428c4.283,2.857,9.998,5.001,13.572,6.432l0,0l0,0l0,0l0,0c-5.002,0-9.289,4.284-9.289,8.569   c0,2.857,1.43,5.714,4.287,7.145l0,0l0,0c-2.857,0-5,1.427-6.428,2.857c-7.857-0.716-16.43-1.43-25-4.288   c-4.287-1.427-10.715-2.857-14.289-4.284l0,0h-0.713c-0.715,0-1.428,0.713-0.715,0.713c1.428,3.571,6.43,10.716,15.002,15.714   c3.57,2.144,6.43,3.571,13.572,5.715c4.285,1.43,7.143,2.144,10,2.144c-1.432,1.427-2.145,3.571-2.145,5.715   c0,4.284,2.857,7.855,7.141,8.572c-3.566,1.427-5.713,4.285-5.713,7.855c0,0.713,0,0.713,0,1.43l0,0   c-8.57,2.141-20.713,4.285-31.428,4.285c-5.715,0-12.145,0-15.715-0.714c-0.713,0-0.713,0.714-0.713,1.427   c2.857,2.857,9.285,9.286,18.57,11.43c3.572,0.713,7.145,2.144,14.287,2.144c6.428,0.713,11.43-0.717,15.715-1.43l0,0l0,0   c1.43,0,2.143-0.713,3.57-0.713l0,0c0.713,4.284,4.287,7.142,8.572,7.142c0.713,0,0.713,0,0.713,0l0,0   c-1.43,1.43-2.145,3.571-2.145,5.715c0,1.43,0.715,2.857,1.432,4.287c-0.717,0.714-1.432,0.714-2.145,1.427   c-0.713,0.714-1.428,0.714-2.141,1.43c-7.857,4.998-20.719,11.426-33.574,14.284c-4.285,1.43-9.283,2.144-12.857,2.857l0,0   c-0.713,0-2.141,0.713-2.854,0.713c-0.717,0-0.717,0.717,0,1.43c2.854,2.144,10.713,6.428,20.711,6.428   c3.572,0,7.855,0,14.287-1.427c6.43-1.43,10.713-3.574,15-5.715l0,0c1.428-0.717,2.141-1.43,3.572-1.43   c0,0,2.143-0.713,4.283-2.144c2.145-0.713,4.289-2.141,5.715-2.854c0,0,0.715,0,0.715-0.717c0,0,0.713,0,0.713-0.713   c1.43,2.144,4.287,3.571,7.145,3.571c1.43,0,3.57-0.713,4.285-1.427c0,0.714-0.715,2.141-0.715,2.857   c0,3.571,2.145,6.428,5.002,7.855c-1.428,3.571-3.574,6.428-5.002,10.002c-4.287,7.855-12.855,19.999-22.141,29.284   c-2.857,2.857-7.146,7.145-10,9.286c-0.713,0.713-0.713,0.713-1.43,1.43c-0.713,0.713,0,1.427,0.717,1.427   c3.566,0,12.855,0,21.426-4.998c3.572-2.144,6.428-4.288,12.143-8.572c5-4.288,7.857-8.572,10.002-12.143l0,0   c0.713-0.713,1.428-2.144,2.141-2.857c0,0,0.713-0.714,1.43-2.857c1.43-2.144,3.57-5.001,4.285-6.428   c1.426-2.144,2.857-3.571,4.287-5.715l0,0c0.713,0,0.713,0,1.428,0c2.857,0,5.715-1.43,7.141-3.571   c0,4.998,4.289,8.572,8.572,8.572c3.57,0,7.145-2.144,8.572-5.714c1.428,3.571,4.287,6.428,8.572,6.428s7.857-3.571,8.572-7.145   c0.713,3.574,4.283,6.431,8.568,6.431c-2.854,4.285-5.715,8.569-8.568,12.856c-6.43,9.286-13.574,17.141-20.715,23.569   c-0.717,0.717,0,1.43,0.713,1.43c3.57-1.43,7.145-2.857,9.285-4.284c1.428-0.717,2.857-1.431,4.287-2.857l-24.285,34.285   l-21.432-15.714c-1.426-0.716-2.141-0.716-3.566-1.43c-5.002-0.713-10.004,2.857-10.717,7.858c0,1.427,0,2.144,0.713,3.571   c0-1.427,0.715-2.144,2.145-3.571c2.145-1.43,4.285-2.144,7.143-1.43l-0.715,4.288c0,0,3.572,3.571,7.859,0.714l17.857,12.856   l-27.146-2.857c-1.428,0-2.141,0-3.568,0.713c-5,1.43-7.857,7.145-5.715,11.43c0.715,0.713,0.715,2.144,2.141,2.857   c0-1.427,0-2.857,0-4.284c0.715-2.144,2.857-4.288,5.715-5.001l-0.713,3.571c0,0,5.002,1.43,7.143-3.571l21.428,2.144   l-14.287,18.571c-0.713,0.713-1.428,2.144-1.428,3.571c-0.713,5.001,2.145,10.716,7.143,11.429c1.43,0,2.145,0,3.574,0   c-1.43-0.713-2.145-1.43-3.574-2.144c-1.428-2.144-2.141-4.998-0.713-7.855l2.857,2.857c0,0,3.57-3.574,0.717-7.858l12.855-17.144   l17.857,2.144c1.428,5.001,6.428,5.001,6.428,5.001v-3.574c1.428,0.717,3.568,1.43,4.285,2.857c0.713,1.43,1.43,2.144,1.43,3.574   c0.715-0.717,0.715-2.857,0.715-4.288c0.713-4.284-2.145-7.855-7.143-9.286l-21.432-2.144l26.43-39.283   c-0.717,2.141-0.717,3.571-0.717,5.711c0,4.288,0.717,8.572,0.717,10.716c0,0.713,1.43,0.713,1.43,0   c4.285-8.572,9.283-17.144,15.711-26.43c1.43-2.141,2.861-4.285,5.002-6.428c3.574,12.856,5.715,27.143,5.715,32.858   c0,8.572-2.857,20.715-10,33.571c-4.285,7.142-7.857,9.286-10.713,9.999c-0.717,0-0.717,0.714,0,1.43   c1.428,0.714,4.281,2.141,8.568,1.427c5.002-0.713,10.004-7.855,10.004-7.855s-6.43,16.428-18.572,22.856   c-7.145,3.571-15.002,2.144-18.574,1.43c-0.713,0-1.43,0.713-0.713,1.427c2.857,2.857,9.998,7.858,19.287,7.142   c9.283-1.427,19.998-12.856,19.998-12.856s-0.713,5.714-5.715,14.287c-2.141,3.571-5,7.855-6.428,9.286   c0,0.713,0,0.713,0.713,0.713c1.428,0,3.574,0,6.43-1.427c2.143-1.43,7.141-5.714,7.141-5.714s0,7.142,2.148,11.429   c0.713,2.141,2.854,4.998,3.566,6.428c0,0,0.715,0,1.432,0c0.713-1.43,2.855-3.574,3.57-6.428   c1.426-4.288,2.143-11.429,2.143-11.429s4.998,4.998,7.143,5.714c2.857,1.427,5.002,1.427,6.428,1.427   c0.717,0,0.717-0.713,0.717-0.713c-1.43-2.144-5-6.428-6.428-9.286c-5.002-8.572-5.715-14.287-5.715-14.287   s10,12.143,19.998,12.856c9.285,1.43,16.432-4.285,19.285-7.142c0.713-0.713,0-1.427-0.713-1.427   c-3.572,0.713-11.43,2.141-18.572-1.43c-12.143-5.715-18.57-22.856-18.57-22.856s5,6.428,9.998,7.855   c3.572,0.713,6.432,0,8.572-1.427c0.713,0,0.713-0.716,0-1.43c-2.141-0.713-6.428-2.857-10.715-9.999   c-7.143-12.856-10-25-10.713-33.571c-0.715-8.572,0-13.573,2.143-35.002l0,0c2.141,2.857,4.285,5.715,6.43,8.572   c6.428,8.572,11.428,17.857,15.713,26.43c0,0.713,1.43,0.713,1.43,0c0.715-2.144,1.428-6.428,0.715-10.716l0,0   c0-0.714,0-2.141,0-2.857l24.285,36.429l-20.715,2.144l0,0c-2.145,0.714-4.285,1.431-5.002,2.857   c-1.426,1.43-2.143,5.001-1.426,7.142c0,1.43,0.713,2.144,1.426,2.857l0.717,0.717v-0.717c0-1.427,0.715-2.857,1.428-3.571   c0.713-1.427,2.141-2.144,3.57-2.857v3.571l0,0l0,0c0.717,0,4.998,0,6.43-4.998l17.857-2.144l12.143,17.144   c-2.857,4.285,0.717,7.855,0.717,7.855l0,0l2.854-2.857c0.713,2.857,0,5.001-1.428,7.145c-0.713,0.713-2.143,2.141-2.857,2.141   h-0.715h0.715c0.715,0,1.432,0,2.145,0h0.713l0,0l0,0c2.141,0,5.002-2.141,5.715-4.284c1.428-2.144,2.141-5.001,1.428-7.142   c0-1.43-0.713-2.144-1.428-3.574l-13.572-18.571l20.715-2.141c1.428,2.857,4.287,3.571,5.715,3.571c0.713,0,1.428,0,1.428,0l0,0   l-0.715-2.857c2.145,0.713,4.287,2.144,5.002,4.285c0.713,1.43,0.713,2.144,0,3.571v0.717l0.713-0.717   c0.713-0.713,1.428-1.427,2.141-2.854c0.717-2.144,0.717-5.001,0-7.145c-0.713-2.144-2.854-4.285-5.711-4.998   c-1.43,0-2.145-0.717-3.57-0.717l0,0l-26.43,2.857l17.141-12.143c1.43,0.714,2.146,0.714,3.574,0.714c2.854,0,4.283-1.427,5-2.141   l0,0l-2.859-2.857l0,0c0.713,0,0.713,0,0.713,0c2.146,0,3.574,0.713,5.002,2.144c0.713,0.713,1.43,2.141,2.143,3.571v0.714v-0.714   c0-1.43,0.717-2.144,0.717-3.571c0-4.288-5-7.858-9.289-7.858c-0.713,0-0.713,0-1.426,0c-1.428,0-2.857,0.713-3.574,1.427   l-20.713,15.717l-24.285-34.288c1.428,1.43,3.57,2.144,5.715,3.574c2.141,1.427,6.428,2.854,9.281,4.284   c0.717,0,1.432-0.713,0.717-1.43c-7.145-6.428-13.572-14.284-20.715-23.569c0-0.716-0.713-0.716-0.713-1.43   c-3.57-4.998-7.855-9.999-7.855-17.857c1.428,5.715,4.285,7.145,9.283,7.145c4.287,0,7.141-2.857,8.572-6.428   c1.43,3.571,4.283,5.711,8.57,5.711c5.002,0,8.572-3.571,8.572-8.569c1.432,2.141,4.285,3.571,7.143,3.571c0.717,0,0.717,0,1.43,0   c1.428,2.144,2.855,3.571,4.285,5.715c0.717,1.427,2.143,3.571,3.57,5.714l0,0l0,0l0,0c1.428,2.141,2.145,3.571,2.145,3.571   c0.713,0.713,1.43,2.141,2.143,2.857c2.141,3.571,5.002,7.855,10,12.143c4.998,4.998,8.572,6.428,12.143,8.572   c8.572,4.998,17.857,4.998,21.428,4.998c0.715,0,0.715-0.713,0.715-1.427c-2.141-2.144-7.855-7.145-11.43-10.716   c-9.283-9.286-17.857-21.429-22.143-29.284c-1.43-3.574-3.57-6.431-4.998-10.002l0,0c2.855-1.427,4.998-4.285,4.998-7.855   c0-0.717,0-2.144-0.713-2.857c1.43,0.714,2.857,1.427,4.285,1.427c2.859,0,5-1.427,7.141-3.571h0.717c0,0,0.713,0,0.713,0.713   c1.432,0.714,5.002,2.144,7.146,3.571c1.426,0.717,2.854,1.431,2.854,1.431c0.713,0.713,2.145,0.713,3.574,1.427   c3.57,2.144,7.855,4.288,14.996,5.715c7.146,1.43,10.717,1.43,14.287,1.43c10,0,17.857-4.288,20.715-6.428   c0.713,0,0.713-1.43,0-1.43c-3.57-0.713-10.002-2.144-15-3.571c-12.855-3.571-26.43-9.999-33.572-14.287   c-1.426-0.714-2.855-1.427-3.57-2.141c0.715-1.43,1.43-2.857,1.43-4.287c0-2.144-0.715-4.285-2.146-5.715l0,0h0.717   c4.285,0,7.859-2.857,8.572-7.142c0,0,0,0,0.713,0l0,0l0,0C879.305,236.733,880.734,236.733,881.447,237.447z M721.447,263.16   L721.447,263.16c-1.428,0-2.855,0-4.285,0c-30.713,0-55-14.283-64.285-32.141l-1.428,2.141c-0.713,1.431-1.43,2.144-2.859,2.857   c-2.141,0.717-4.285,1.43-6.428,0.717c-2.141-0.717-3.568-2.144-4.998-4.288c-0.717-2.141-1.432-4.285-0.717-6.428   c0.717-2.144,2.146-3.571,4.287-4.998c0.713,0,0.713-0.717,1.428-0.717l4.287-1.427l-3.574-1.431   c-1.428-0.713-2.854-2.141-3.568-3.571c-0.713-2.144-1.43-4.284-0.713-6.428c0.713-2.144,2.141-3.571,4.281-5.001   c4.287-2.141,9.289-0.713,11.43,3.574c0.713,1.427,1.43,3.571,0.713,4.998l-0.713,4.287l2.859-2.857   c0.715,0,0.715-0.717,1.428-0.717c4.285-2.141,9.285-0.713,11.43,3.574c0.713,2.141,1.426,4.285,0.713,6.428   c-0.713,2.141-2.145,3.571-4.287,4.998c-1.428,0.717-2.854,0.717-4.285,0.717h-2.857c12.857,18.571,41.43,27.143,60.715,26.427   h1.428c0,0,0.713,5.001,1.43,7.858l0.713,1.427H721.447z M745.732,150.303c-4.998,0-5.715-9.286-5.715-9.999l0,0   c0,0,0.717,0,2.146-0.714c1.428,0,3.568,0,3.568,0s1.43,2.141,0,6.429c0,0,2.145-0.714,2.861-2.144   c0.713-0.713,0.713-2.144,0.713-2.857c0-0.713,0-0.713,0-0.713c1.428,0,2.141,0.713,2.141,0.713S751.447,150.303,745.732,150.303z    M862.16,231.732c-0.713,2.144-2.854,3.571-4.998,4.284c-2.143,0.717-4.283,0.717-6.428-0.713c-1.43-0.713-2.145-1.427-2.857-2.857   l-1.428-2.141c-9.289,17.854-33.574,32.141-64.287,32.141c-1.428,0-2.855,0-4.285,0h-3.57l-0.715-5.001l-0.713-4.285h6.428   c19.285,0,47.855-7.858,60.715-26.43h-2.861c-1.426,0-2.854,0-4.283-0.713c-2.145-0.713-3.57-2.857-4.285-4.998   c-0.713-2.144-0.713-4.288,0.715-6.431c2.141-4.285,7.141-5.712,11.428-3.571c0.715,0,0.715,0.713,1.428,0.713l2.857,2.857   l-0.713-4.285c0-2.144,0-3.571,0.713-5.001c2.145-4.285,7.145-5.715,11.43-3.571c2.143,0.713,3.57,2.857,4.283,5.001   c0.715,2.144,0.715,4.285-0.713,6.428c-0.713,1.427-2.141,2.857-3.57,3.571l-3.57,1.43l4.283,1.427c0.717,0,0.717,0,1.43,0.713   c2.141,0.717,3.568,2.857,4.285,5.001C863.59,227.448,863.59,230.305,862.16,231.732z"/>
	<path fill="#FFFFFF" d="M710.018,161.732c0.717,1.43,2.146,2.144,4.287,2.144c0.715,0,1.428,0,1.428,0   c4.287,0,8.574-1.43,12.859-3.571l0,0c0.713,0,1.43-0.717,1.43-0.717c1.428-0.713,2.855-1.427,4.281-1.427   c3.574-1.43,6.432-1.43,8.576-2.144c-0.715,0-2.145,0-2.861,0c-6.428,0-10.713,0.713-14.996,2.144   c-2.145,0.714-4.289,0.714-6.43,1.427c-0.713,0-1.43,0-2.143,0c-5.002,0-6.432-3.571-7.145-5.715   C708.59,157.448,708.59,160.305,710.018,161.732z"/>
</g>
<g>
	<polygon fill="#FFFFFF" points="566.449,878.877 566.449,752.447 544.305,752.447 544.305,897.448 625.734,897.448    627.164,878.877  "/>
	<path fill="#FFFFFF" d="M449.305,749.59c-40,0-63.572,32.145-63.572,75.715c0,42.144,23.572,74.284,63.572,74.284   s63.572-30.714,63.572-74.998C512.877,782.447,490.02,749.59,449.305,749.59z M449.305,881.018c-27.856,0-40-24.999-40-55.713   c0-31.428,11.428-57.144,40-57.144s40,26.43,40,57.144S476.448,881.018,449.305,881.018z"/>
	<path fill="#FFFFFF" d="M332.162,830.306c16.429-5.001,28.572-18.571,28.572-38.572c0-26.43-17.142-40.713-52.857-40.713   c-14.285,0-28.572,0.713-40,2.141v143.57h22.144v-60.711h22.857l29.286,60.711h24.286L332.162,830.306L332.162,830.306z    M308.592,818.876h-20v-49.285c4.285-0.716,9.286-0.716,17.143-0.716c20,0,31.429,5.714,31.429,24.285   C337.164,809.591,326.448,818.876,308.592,818.876z"/>
	<rect x="205.734" y="752.447" fill="#FFFFFF" width="22.144" height="145.001"/>
	<polygon fill="#FFFFFF" points="80.021,771.019 120.02,771.019 120.02,897.448 142.162,897.448 142.162,771.019 181.448,771.019    182.163,752.447 80.734,752.447  "/>
	<path fill="#FFFFFF" d="M597.877,635.306c0-42.857-23.572-70.717-73.57-70.717c-15,0-29.287,0.717-41.43,2.144v143.571   c10.001,0.714,21.428,0.714,35.002,0.714C571.447,711.018,597.877,683.16,597.877,635.306z M519.305,693.163   c-5,0-10.715,0-14.283-0.717V583.16c4.998-0.714,12.143-0.714,19.998-0.714c32.857,0,49.285,20.715,49.285,53.573   C574.305,675.306,555.734,693.163,519.305,693.163z"/>
	<path fill="#FFFFFF" d="M357.163,596.733h0.714l62.856,113.57h23.572V565.306h-20.715l0.715,112.141h-0.715   c-13.572-28.57-62.143-111.427-62.143-111.427h-25v144.998h20.715V596.733z"/>
	<path fill="#FFFFFF" d="M290.021,710.304h24.284l-46.428-144.998h-27.856l-46.43,144.998h23.572l12.856-42.144h46.429   L290.021,710.304z M235.019,651.02l18.573-67.143h0.713l18.571,67.143H235.019z"/>
	<polygon fill="#FFFFFF" points="177.877,691.732 117.163,691.732 117.163,565.306 95.019,565.306 95.019,710.304 177.162,710.304     "/>
</g>
</svg>