<?xml version="1.0" encoding="UTF-8" standalone="no"?>
<svg
   version="1.1"
   width="113.38667"
   height="72.453064"
   viewBox="0 0 113.38667 72.453064"
   xmlns="http://www.w3.org/2000/svg"
   xmlns:svg="http://www.w3.org/2000/svg">
  <defs
     id="defs1">
    <clipPath
       clipPathUnits="userSpaceOnUse"
       id="clipPath2">
      <path
         d="M 0,54.34 H 85.04 V 0 H 0 Z"
         transform="translate(-34.109901,-38.292001)"
         id="path2" />
    </clipPath>
    <clipPath
       clipPathUnits="userSpaceOnUse"
       id="clipPath4">
      <path
         d="M 0,54.34 H 85.04 V 0 H 0 Z"
         transform="translate(-17.2891,-38.292001)"
         id="path4" />
    </clipPath>
    <clipPath
       clipPathUnits="userSpaceOnUse"
       id="clipPath6">
      <path
         d="M 0,54.34 H 85.04 V 0 H 0 Z"
         transform="translate(-50.929702,-38.292001)"
         id="path6" />
    </clipPath>
    <clipPath
       clipPathUnits="userSpaceOnUse"
       id="clipPath8">
      <path
         d="M 0,54.34 H 85.04 V 0 H 0 Z"
         transform="translate(-74.185502,-27.417)"
         id="path8" />
    </clipPath>
    <clipPath
       clipPathUnits="userSpaceOnUse"
       id="clipPath10">
      <path
         d="M 0,54.34 H 85.04 V 0 H 0 Z"
         transform="translate(-71.960002,-25.192401)"
         id="path10" />
    </clipPath>
    <clipPath
       clipPathUnits="userSpaceOnUse"
       id="clipPath12">
      <path
         d="M 0,54.34 H 85.04 V 0 H 0 Z"
         transform="translate(-67.753901,-38.292001)"
         id="path12" />
    </clipPath>
  </defs>
  <g id="layer-MC0">
    <path
       id="path1"
       d="m 0,0 c -0.684,0 -1.237,-0.554 -1.237,-1.236 v -19.769 c 0,-0.683 0.555,-1.237 1.239,-1.237 0.683,0 1.237,0.554 1.237,1.237 L 1.236,-1.236 C 1.236,-0.554 0.682,0 0,0"
       style="fill:#293f77;fill-opacity:1;fill-rule:nonzero;stroke:none"
       transform="matrix(1.3333333,0,0,-1.3333333,45.479867,21.397067)"
       clip-path="url(#clipPath2)" />
    <path
       id="path3"
       d="m 0,0 h -1.239 l 0.003,-22.242 H 0 c 0.684,0 1.238,0.554 1.238,1.237 L 1.235,-1.237 C 1.235,-0.553 0.684,0 0,0"
       style="fill:#293f77;fill-opacity:1;fill-rule:nonzero;stroke:none"
       transform="matrix(1.3333333,0,0,-1.3333333,23.052133,21.397067)"
       clip-path="url(#clipPath4)" />
    <path
       id="path5"
       d="M 0,0 H -1.234 V -10.132 H 0 c 0.685,0 1.242,0.553 1.242,1.237 L 1.238,-1.236 C 1.238,-0.554 0.685,0 0,0"
       style="fill:#293f77;fill-opacity:1;fill-rule:nonzero;stroke:none"
       transform="matrix(1.3333333,0,0,-1.3333333,67.906267,21.397067)"
       clip-path="url(#clipPath6)" />
    <path
       id="path7"
       d="M 0,0 C 0,-1.228 -0.996,-2.225 -2.226,-2.225 -0.996,-2.225 0,-3.222 0,-4.452 v -12.11 h -5.195 v 10.13 c 0,0.684 -0.554,1.237 -1.237,1.237 h -1.237 v -11.367 h -5.194 V 16.07 h 9.154 C -1.657,16.07 0,14.407 0,12.361 Z m -16.821,0 c 0,-1.228 -0.997,-2.225 -2.228,-2.225 1.231,0 2.228,-0.997 2.228,-2.227 v -12.11 h -5.197 v 10.13 c 0,0.684 -0.553,1.237 -1.238,1.237 h -1.234 v -11.367 h -5.196 V 16.07 h 9.156 c 2.05,0 3.709,-1.663 3.709,-3.709 z m -16.824,-12.853 c 0,-2.049 -1.661,-3.709 -3.71,-3.709 h -5.444 c -2.05,0 -3.71,1.66 -3.71,3.709 v 25.214 c 0,2.046 1.66,3.709 3.71,3.709 h 5.447 c 2.048,0 3.707,-1.663 3.707,-3.709 z m -16.823,0 c 0,-2.049 -1.659,-3.709 -3.711,-3.709 h -3.957 v -3.217 h -5.195 V 16.07 h 9.156 c 2.05,0 3.707,-1.662 3.707,-3.711 z M 4.064,26.923 h -78.25 l 0.003,-47.55 c 0,-3.744 3.046,-6.791 6.79,-6.791 h 78.247 v 47.549 c 0,3.745 -3.045,6.792 -6.79,6.792"
       style="fill:#293f77;fill-opacity:1;fill-rule:nonzero;stroke:none"
       transform="matrix(1.3333333,0,0,-1.3333333,98.914,35.897067)"
       clip-path="url(#clipPath8)" />
    <path
       id="path9"
       d="m 0,0 c 1.229,0 2.226,0.997 2.226,2.225 v 12.36 c 0,2.047 -1.658,3.709 -3.709,3.709 h -9.155 v -32.632 h 5.195 v 11.367 h 1.237 c 0.683,0 1.236,-0.552 1.236,-1.236 v -10.131 h 5.196 v 12.11 C 2.226,-0.997 1.229,0 0,0 m -2.966,4.205 c 0,-0.684 -0.557,-1.237 -1.24,-1.237 H -5.443 V 13.1 h 1.237 c 0.683,0 1.236,-0.554 1.236,-1.236 z m -16.826,-18.543 h 5.196 v 12.11 c 0,1.231 -0.997,2.228 -2.227,2.228 1.23,0 2.227,0.997 2.227,2.225 v 12.36 c 0,2.047 -1.659,3.709 -3.709,3.709 h -9.155 v -32.632 h 5.195 v 11.367 h 1.235 c 0.684,0 1.238,-0.552 1.238,-1.236 z m 0.004,18.543 c 0,-0.684 -0.558,-1.237 -1.242,-1.237 h -1.235 V 13.1 h 1.235 c 0.684,0 1.238,-0.554 1.238,-1.236 z m -11.631,-14.833 v 25.213 c 0,2.047 -1.659,3.709 -3.707,3.709 h -5.447 c -2.05,0 -3.71,-1.662 -3.71,-3.709 v -25.213 c 0,-2.05 1.66,-3.71 3.71,-3.71 h 5.443 c 2.05,0 3.711,1.66 3.711,3.71 m -5.192,2.723 c 0,-0.684 -0.554,-1.238 -1.237,-1.238 -0.684,0 -1.239,0.554 -1.239,1.238 v 19.769 c 0,0.682 0.553,1.236 1.237,1.236 0.682,0 1.236,-0.554 1.236,-1.236 z m -11.631,-2.723 v 25.211 c 0,2.05 -1.658,3.711 -3.707,3.711 h -9.156 v -35.849 h 5.195 v 3.217 h 3.957 c 2.051,0 3.711,1.66 3.711,3.71 m -5.191,2.723 c 0,-0.684 -0.554,-1.238 -1.238,-1.238 h -1.236 L -55.91,13.1 h 1.239 c 0.684,0 1.235,-0.553 1.235,-1.237 z"
       style="fill:#fff200;fill-opacity:1;fill-rule:nonzero;stroke:none"
       transform="matrix(1.3333333,0,0,-1.3333333,95.946667,38.8632)"
       clip-path="url(#clipPath10)" />
    <path
       id="path11"
       d="M 0,0 H -1.237 V -10.132 H 0 c 0.683,0 1.24,0.553 1.24,1.237 L 1.236,-1.236 C 1.236,-0.554 0.683,0 0,0"
       style="fill:#293f77;fill-opacity:1;fill-rule:nonzero;stroke:none"
       transform="matrix(1.3333333,0,0,-1.3333333,90.338533,21.397067)"
       clip-path="url(#clipPath12)" />
  </g>
</svg>
