<svg xmlns="http://www.w3.org/2000/svg" width="295.262" height="172.438" viewBox="0 0 295.262 172.438">
  <g id="Gruppe_18" data-name="Gruppe 18" transform="translate(-766.244 -54.971)">
    <g id="Gruppe_2" data-name="Gruppe 2" transform="translate(766.244 132.353)">
      <g id="Gruppe_1" data-name="Gruppe 1">
        <path id="Pfad_1" data-name="Pfad 1" d="M254.8,326.757l1.437-.41c1.026-.308,1.026-.41,1.026-2.258V311.055c0-.924,0-1.026-1.437-1.026-2.258,0-2.771.308-3.489,1.539l-.821,1.539H250.8v-4l.205-.205h14.779l.205.205v4h-.718l-.821-1.539c-.718-1.334-1.232-1.539-3.387-1.539-1.437,0-1.437.1-1.437,1.026v12.931c0,1.847,0,1.95,1.129,2.258l1.437.41v.513H254.8v-.411Z" transform="translate(-250.8 -308.592)" fill="#636362"/>
        <path id="Pfad_2" data-name="Pfad 2" d="M267.3,318.247c0-6.876,4.413-9.647,9.134-9.647,4.516,0,7.389,2.874,7.389,8.826,0,7.081-3.8,10.16-8.723,10.16C269.866,327.689,267.3,324.2,267.3,318.247Zm8.826,8.108c4.516,0,5.131-4.208,5.131-8.929,0-4.926-2.463-7.389-5.85-7.389-4.721,0-5.542,4-5.542,7.595C269.866,323.378,271.713,326.355,276.126,326.355Z" transform="translate(-250.366 -308.6)" fill="#636362"/>
        <path id="Pfad_3" data-name="Pfad 3" d="M286.7,326.755l1.232-.411c.924-.308.924-.616.924-2.36V312.592c0-1.95,0-2.258-.924-2.566l-1.232-.411V309h8.518c2.771,0,4.516,1.129,4.516,4,0,4.618-3.9,4.413-3.9,5.131,0,.205.205.411.308.616l3.387,4.926c1.334,1.95,1.745,2.463,2.976,3.079v.513h-2.463a1.815,1.815,0,0,1-1.642-.924l-3.9-6.26c-.821-1.334-.924-1.437-2.053-1.437h-.513c-.616,0-.718.1-.718.821v4.618c0,1.95,0,1.95.924,2.36l1.026.411v.513H286.7v-.616Zm4.413-10.058c0,.821.1.821,1.847.821,2.874,0,4.31-1.026,4.31-3.695-.1-2.976-1.745-3.8-4.31-3.8-1.847,0-1.847.205-1.847,1.334Z" transform="translate(-249.856 -308.589)" fill="#636362"/>
        <path id="Pfad_4" data-name="Pfad 4" d="M318.473,326.66a31.672,31.672,0,0,1-6.055,1.026c-5.542,0-8.518-2.976-8.518-9.339,0-7.492,5.337-9.647,9.442-9.647,2.566,0,5.747.821,5.747,2.566,0,.205-.1.513-.1.616l-.924,2.053h-.411c-.41-1.847-1.539-3.9-5.234-3.9-4.105,0-5.85,2.566-5.85,7.287,0,5.747,2.155,9.031,6.979,9.031,1.539,0,2.976-.308,2.976-1.437v-1.95c0-1.232,0-1.232-1.129-1.539l-1.437-.513V320.3h6.466v.513l-.616.308c-1.026.513-1.026.308-1.026,1.642v3.592Z" transform="translate(-249.404 -308.597)" fill="#636362"/>
        <path id="Pfad_5" data-name="Pfad 5" d="M337.773,326.66a31.673,31.673,0,0,1-6.055,1.026c-5.542,0-8.518-2.976-8.518-9.339,0-7.492,5.337-9.647,9.442-9.647,2.566,0,5.747.821,5.747,2.566,0,.205-.1.513-.1.616l-.924,2.053h-.411c-.41-1.847-1.539-3.9-5.234-3.9-4.105,0-5.85,2.566-5.85,7.287,0,5.747,2.155,9.031,6.979,9.031,1.539,0,2.976-.308,2.976-1.437v-1.95c0-1.232,0-1.232-1.129-1.539l-1.437-.513V320.3h6.466v.513l-.616.308c-1.026.513-1.026.308-1.026,1.642v3.592Z" transform="translate(-248.897 -308.597)" fill="#636362"/>
        <path id="Pfad_6" data-name="Pfad 6" d="M343.434,326.344c.924-.308.924-.513.924-2.566V312.592c0-1.95,0-2.258-.821-2.566l-1.334-.411V309h6.979v.513l-1.539.411c-1.129.308-1.026.513-1.026,2.566v11.6c0,1.745.308,1.95,3.387,2.053,3.181,0,3.592-.513,4.413-2.36l.616-1.437h.718v4.618l-.205.205H342.1v-.513Z" transform="translate(-248.4 -308.589)" fill="#636362"/>
        <path id="Pfad_7" data-name="Pfad 7" d="M358,326.755l1.232-.411c.924-.308.924-.616.924-2.566V312.592c0-1.847,0-2.258-.924-2.566L358,309.616V309h12.829l.205.205v4.105h-.718l-.718-1.437c-.924-1.642-1.232-1.745-3.592-1.745-3.489,0-3.489.1-3.489,1.232v4.721c0,.924.1,1.026,1.232,1.026H365.8c1.026,0,1.232-.1,1.745-1.334l.41-.924h.513v5.645h-.513l-.308-.821c-.616-1.334-.718-1.437-1.745-1.437h-2.155c-1.129,0-1.129.1-1.129,1.232v4.618c0,1.539,0,2.053,3.592,2.053,3.284,0,3.592-.513,4.516-2.566l.616-1.232h.718v4.721l-.205.205H358Z" transform="translate(-247.982 -308.589)" fill="#636362"/>
        <path id="Pfad_8" data-name="Pfad 8" d="M374.3,326.755l1.232-.411c.924-.308.924-.616.924-2.36V312.592c0-1.95,0-2.258-.924-2.566l-1.232-.411V309h8.518c2.771,0,4.516,1.129,4.516,4,0,4.618-3.9,4.413-3.9,5.131,0,.205.205.411.308.616l3.387,4.926c1.334,1.95,1.745,2.463,2.976,3.079v.513h-2.463a1.815,1.815,0,0,1-1.642-.924l-3.9-6.26c-.821-1.334-.924-1.437-2.053-1.437h-.513c-.616,0-.718.1-.718.821v4.618c0,1.95,0,1.95.924,2.36l1.026.411v.513H374.3Zm4.516-10.058c0,.821.1.821,1.847.821,2.874,0,4.31-1.026,4.31-3.695-.1-2.976-1.745-3.8-4.31-3.8-1.847,0-1.847.205-1.847,1.334Z" transform="translate(-247.554 -308.589)" fill="#636362"/>
        <path id="Pfad_9" data-name="Pfad 9" d="M401,326.755l1.232-.411c.924-.308.924-.718.924-2.566V312.592c0-1.847,0-2.258-.924-2.566L401,309.616V309h6.671v.513l-1.232.411c-.924.308-.924.718-.924,2.566v3.8c0,.821.205.821,1.026.821h6.671c.924,0,1.026,0,1.026-.821v-3.8c0-1.95,0-2.258-.924-2.566l-1.232-.411V309h6.671v.513l-1.232.411c-.924.308-.924.718-.924,2.566v11.187c0,1.847,0,2.258.924,2.566l1.232.41v.513h-6.671v-.513l1.232-.41c.924-.308.924-.616.924-2.566v-4.413c0-.924-.1-1.026-.924-1.026h-6.979c-.924,0-.924.1-.924,1.026v4.516c0,1.95,0,2.258.924,2.566l1.232.411v.513H401Z" transform="translate(-246.852 -308.589)" fill="#636362"/>
        <path id="Pfad_10" data-name="Pfad 10" d="M421.6,318.247c0-6.876,4.413-9.647,9.134-9.647,4.516,0,7.389,2.874,7.389,8.826,0,7.081-3.8,10.16-8.723,10.16C424.268,327.689,421.6,324.2,421.6,318.247Zm8.826,8.108c4.516,0,5.131-4.208,5.131-8.929,0-4.926-2.463-7.389-5.85-7.389-4.721,0-5.542,4-5.542,7.595C424.166,323.378,426.116,326.355,430.426,326.355Z" transform="translate(-246.311 -308.6)" fill="#636362"/>
        <path id="Pfad_11" data-name="Pfad 11" d="M441.1,326.755l1.232-.411c.924-.308.924-.513.924-2.566V312.592c0-1.95,0-2.258-.924-2.566l-1.232-.411V309h12.829l.205.205v4.105h-.821l-.718-1.232c-.924-1.642-.924-1.95-4.31-1.95-2.874,0-2.874.1-2.874,1.334V316.7c0,.821.1.821,1.129.821h2.053c1.129,0,1.334-.205,1.847-1.437l.41-.924h.513V320.8h-.513l-.513-1.026c-.513-1.232-.616-1.232-1.847-1.232h-1.95c-.718,0-1.129,0-1.129.616v4.516c0,2.053,0,2.258.718,2.463l1.642.513v.513H441v-.41Z" transform="translate(-245.801 -308.589)" fill="#636362"/>
        <path id="Pfad_12" data-name="Pfad 12" d="M456.105,326.757l1.129-.41c1.026-.41,1.026-.616,1.129-2.771l.718-10.776c0-.308.1-.616.1-.924,0-1.129,0-1.334-1.026-1.745l-1.129-.513V309h4.413l.205.205c.205.513.718,2.053,1.334,3.387l4.208,10.365c.205.411.205.616.411.616s.1,0,.308-.513l3.387-7.8c.821-1.95,2.155-5.234,2.463-6.158l.205-.205h4.413v.513l-.821.308c-1.129.513-1.232.718-1.232,1.539V312.8l.308,11.7c0,1.026,0,1.232,1.026,1.642l.821.308v.513h-6.466v-.513l1.539-.513c.821-.205.821-.616.821-1.437v-.718l-.308-10.673c0-.308-.1-.41-.205-.41s-.205.1-.411.41l-4.721,10.879c-.41.924-1.026,2.566-1.232,2.874l-.205.205h-.821l-.205-.1c-.205-.513-.718-1.95-1.232-3.181l-3.9-9.852c-.308-.821-.41-1.129-.616-1.129s-.308.308-.308.821l-.616,10.058V324.7c0,1.026.616,1.232,1.334,1.437l1.232.41v.513H455.9v-.308Z" transform="translate(-245.409 -308.592)" fill="#636362"/>
        <path id="Pfad_13" data-name="Pfad 13" d="M480.1,326.755l.924-.411c1.026-.513,1.129-1.129,1.745-2.566l5.952-14.676.205-.1h1.437l.1.1,5.131,14.778c.616,1.642.513,1.95,1.745,2.463l.821.308v.513h-6.568v-.513l1.539-.513c.41-.1.718-.308.718-.616a2.414,2.414,0,0,0-.205-.821l-1.334-4.105c-.205-.718-.513-.821-1.232-.821h-3.695c-1.129,0-1.334.1-1.847,1.437l-.924,2.668a4.929,4.929,0,0,0-.411,1.539c0,.41.205.513.821.718l1.437.513v.513h-6.055v-.41Zm6.466-8.723a.925.925,0,0,0-.1.513c0,.308.205.308.821.308h3.489c.411,0,.616-.1.616-.411,0-.1-.1-.308-.1-.411l-1.745-5.542c-.205-.616-.205-.718-.41-.718s-.205.308-.308.513Z" transform="translate(-244.773 -308.589)" fill="#636362"/>
        <path id="Pfad_14" data-name="Pfad 14" d="M500.1,326.755l1.334-.513c.924-.308.924-.924.924-2.874v-11.8a1.3,1.3,0,0,0-.924-1.437l-1.129-.513V309h3.489l.308.205c.616.924,1.95,2.771,3.489,4.926l6.363,8.723c.205.205.308.411.411.411.205,0,.205-.308.205-.821V311.976c0-1.232-.1-1.437-1.129-1.847L512,309.616V309h6.158v.513l-.718.205c-1.539.513-1.539.718-1.539,2.668V323.06c0,1.642.1,3.387.1,4l-.205.205h-1.129l-.308-.205c-.411-.513-1.334-1.745-2.668-3.592l-7.287-9.75c-.308-.513-.513-.718-.616-.718-.205,0-.205.308-.205.616v10.571c0,1.129,0,1.642,1.129,2.053l1.642.513v.513H500.1v-.513Z" transform="translate(-244.247 -308.589)" fill="#636362"/>
        <path id="Pfad_15" data-name="Pfad 15" d="M520.9,326.755l1.334-.513c.924-.308.924-.924.924-2.874v-11.8a1.3,1.3,0,0,0-.924-1.437l-1.129-.513V309h3.489l.308.205c.616.924,1.95,2.771,3.489,4.926l6.363,8.723c.205.205.308.411.411.411.205,0,.205-.308.205-.821V311.976c0-1.232-.1-1.437-1.129-1.847l-1.437-.513V309h6.158v.513l-.718.205c-1.539.513-1.539.718-1.539,2.668V323.06c0,1.642.1,3.387.1,4l-.205.205h-1.129l-.308-.205c-.411-.513-1.334-1.745-2.668-3.592l-7.287-9.75c-.308-.513-.513-.718-.616-.718-.205,0-.205.308-.205.616v10.571c0,1.129,0,1.642,1.129,2.053l1.642.513v.513H520.9v-.513Z" transform="translate(-243.701 -308.589)" fill="#636362"/>
      </g>
    </g>
    <g id="Gruppe_4" data-name="Gruppe 4" transform="translate(873.491 54.971)">
      <path id="Pfad_16" data-name="Pfad 16" d="M372.321,271.6H363.7l13.239-19.5h8.723Z" transform="translate(-355.079 -232.703)" fill="#006591"/>
      <path id="Pfad_17" data-name="Pfad 17" d="M412.223,271.6H403.5l13.239-19.5h8.723Z" transform="translate(-354.033 -232.703)" fill="#006591"/>
      <path id="Pfad_18" data-name="Pfad 18" d="M392.323,271.6H383.6l13.239-19.5h8.723Z" transform="translate(-354.556 -232.703)" fill="#006591"/>
      <g id="Gruppe_3" data-name="Gruppe 3">
        <path id="Pfad_19" data-name="Pfad 19" d="M355.3,233.2l4.926,7.287h8.621L377.16,252.7h8.723l-8.313-12.213h11.7l8.313,12.213h8.723l-13.239-19.5Z" transform="translate(-355.3 -233.2)" fill="#c8dfeb"/>
        <path id="Pfad_20" data-name="Pfad 20" d="M412.223,233.2H403.5l13.239,19.5h8.723Z" transform="translate(-354.033 -233.2)" fill="#c8dfeb"/>
      </g>
    </g>
    <g id="Gruppe_5" data-name="Gruppe 5" transform="translate(836.647 167.965)">
      <path id="Pfad_21" data-name="Pfad 21" d="M319.4,355.963v-9.544c0-.513.205-.718.718-.718h2.463c2.36,0,3.8,1.232,3.8,3.387s-1.334,3.387-3.8,3.387h-1.95v3.489a.592.592,0,0,1-.616.616h-.205C319.605,356.579,319.4,356.373,319.4,355.963Zm5.645-6.876c0-1.539-.821-2.36-2.566-2.36h-1.95v4.721h1.95C324.224,351.447,325.045,350.626,325.045,349.087Z" transform="translate(-319.4 -343.237)" fill="#636362"/>
      <path id="Pfad_22" data-name="Pfad 22" d="M329.7,356.171l3.489-10.16c.1-.205.308-.411.924-.411s.821.1.924.411l3.592,10.16a.6.6,0,0,1-.616.411.75.75,0,0,1-.718-.616l-1.026-2.976h-4.105l-1.026,2.976a.661.661,0,0,1-.718.616C329.905,356.581,329.7,356.273,329.7,356.171Zm6.158-4.208-1.745-5.234-1.745,5.234Z" transform="translate(-319.129 -343.24)" fill="#636362"/>
      <path id="Pfad_23" data-name="Pfad 23" d="M344.287,346.829h-2.771c-.411,0-.616-.205-.616-.513v-.1c0-.308.205-.513.616-.513h6.773c.41,0,.616.205.616.513v.1c0,.308-.205.513-.616.513h-2.771v9.134a.544.544,0,0,1-.616.616H344.7c-.308,0-.513-.205-.513-.616v-9.134Z" transform="translate(-318.835 -343.237)" fill="#636362"/>
      <path id="Pfad_24" data-name="Pfad 24" d="M353.2,355.758v-9.339c0-.513.205-.718.718-.718h5.542c.411,0,.616.205.616.513v.1c0,.308-.205.513-.616.513h-5.029v3.695h3.695c.41,0,.616.1.616.513v.1c0,.308-.205.513-.616.513h-3.695v3.9h5.131c.411,0,.616.1.616.513v.1c0,.308-.205.513-.616.513h-5.747A.9.9,0,0,1,353.2,355.758Z" transform="translate(-318.512 -343.237)" fill="#636362"/>
      <path id="Pfad_25" data-name="Pfad 25" d="M364.8,355.965v-9.647c0-.411.205-.718.616-.718h.205c.308,0,.513.1.718.513l5.439,8.313v-8.21c0-.411.205-.616.513-.616h.1c.308,0,.513.205.513.616v9.647c0,.41-.205.718-.513.718h-.205a.563.563,0,0,1-.616-.41l-5.542-8.416v8.313c0,.411-.205.616-.513.616h-.1C364.9,356.581,364.8,356.376,364.8,355.965Z" transform="translate(-318.207 -343.24)" fill="#636362"/>
      <path id="Pfad_26" data-name="Pfad 26" d="M380.487,346.829h-2.771c-.411,0-.616-.205-.616-.513v-.1c0-.308.205-.513.616-.513h6.773c.41,0,.616.205.616.513v.1c0,.308-.205.513-.616.513h-2.771v9.134a.544.544,0,0,1-.616.616h0c-.308,0-.513-.205-.513-.616v-9.134Z" transform="translate(-317.883 -343.237)" fill="#636362"/>
      <path id="Pfad_27" data-name="Pfad 27" d="M387.5,356.171l3.489-10.16c.1-.205.308-.411.924-.411s.821.1.924.411l3.592,10.16a.6.6,0,0,1-.616.411.75.75,0,0,1-.718-.616l-1.026-2.976h-4.105l-1.026,2.976a.661.661,0,0,1-.718.616C387.705,356.581,387.5,356.273,387.5,356.171Zm6.158-4.208-1.745-5.234-1.745,5.234Z" transform="translate(-317.61 -343.24)" fill="#636362"/>
      <path id="Pfad_28" data-name="Pfad 28" d="M400.6,355.965v-9.647c0-.411.205-.718.616-.718h.205c.308,0,.513.1.718.513l5.439,8.313v-8.21c0-.411.205-.616.513-.616h.1c.308,0,.513.205.513.616v9.647c0,.41-.205.718-.513.718h-.1a.563.563,0,0,1-.616-.41l-5.542-8.416v8.313c0,.411-.205.616-.513.616h-.1C400.805,356.581,400.6,356.376,400.6,355.965Z" transform="translate(-317.266 -343.24)" fill="#636362"/>
      <path id="Pfad_29" data-name="Pfad 29" d="M415.758,356.068,413.5,346.011c0-.1.205-.411.718-.411.308,0,.616.1.718.718l1.847,8.826,2.155-7.287c.1-.411.308-.513.821-.513a.684.684,0,0,1,.718.513l2.155,7.287,1.847-8.826c.1-.513.411-.718.718-.718a1.133,1.133,0,0,1,.718.308l-2.258,10.058c-.1.308-.308.513-.821.513s-.718-.205-.821-.513l-2.155-7.081-2.155,7.081c-.1.308-.308.513-.821.513C416.066,356.581,415.758,356.479,415.758,356.068Z" transform="translate(-316.927 -343.24)" fill="#636362"/>
      <path id="Pfad_30" data-name="Pfad 30" d="M428.7,356.231l3.489-10.16c.1-.205.308-.41.924-.41s.821.1.924.41l3.592,10.16a.6.6,0,0,1-.616.411.75.75,0,0,1-.718-.616l-1.026-2.976h-4.105l-1.026,2.976a.661.661,0,0,1-.718.616A.783.783,0,0,1,428.7,356.231Zm2.258-12.213a.718.718,0,1,1,.718.718A.648.648,0,0,1,430.958,344.018Zm4,8.005-1.745-5.234-1.745,5.234Zm-1.026-8.005c0-.513.205-.718.718-.718a.718.718,0,1,1-.718.718Z" transform="translate(-316.527 -343.3)" fill="#636362"/>
      <path id="Pfad_31" data-name="Pfad 31" d="M441.9,355.76v-9.544c0-.411.205-.616.513-.616h.205c.308,0,.513.205.513.616v9.134h4.208c.41,0,.616.205.616.513v.1c0,.308-.205.513-.616.513h-4.824C442.105,356.479,441.9,356.171,441.9,355.76Z" transform="translate(-316.18 -343.24)" fill="#636362"/>
      <path id="Pfad_32" data-name="Pfad 32" d="M453.287,346.829h-2.771c-.41,0-.616-.205-.616-.513v-.1c0-.308.205-.513.616-.513h6.773c.41,0,.616.205.616.513v.1c0,.308-.205.513-.616.513h-2.771v9.134a.544.544,0,0,1-.616.616H453.7c-.308,0-.513-.205-.513-.616v-9.134Z" transform="translate(-315.97 -343.237)" fill="#636362"/>
      <path id="Pfad_33" data-name="Pfad 33" d="M462.3,355.758v-9.339c0-.513.205-.718.718-.718h5.542c.411,0,.616.205.616.513v.1c0,.308-.205.513-.616.513h-5.029v3.695h3.695c.41,0,.616.1.616.513v.1c0,.308-.205.513-.616.513h-3.695v3.9h5.131c.411,0,.616.1.616.513v.1c0,.308-.205.513-.616.513h-5.747A.9.9,0,0,1,462.3,355.758Z" transform="translate(-315.644 -343.237)" fill="#636362"/>
    </g>
  </g>
</svg>
