<?xml version="1.0" encoding="UTF-8"?>
<!-- Generator: Adobe Illustrator 25.2.1, SVG Export Plug-In . SVG Version: 6.00 Build 0)  -->
<svg version="1.1" id="Ebene_1" xmlns="http://www.w3.org/2000/svg" xmlns:xlink="http://www.w3.org/1999/xlink" x="0px" y="0px" viewBox="0 0 141.7 141.7" style="enable-background:new 0 0 141.7 141.7;" xml:space="preserve">
<rect y="0" style="fill:#9C0049;" width="141.7" height="141.7"/>
<path style="fill:#D56567;" d="M63.8,37.2c4.6,0,8.4-3.7,8.4-8.4c0-4.6-3.7-8.4-8.4-8.4c-4.6,0-8.4,3.7-8.4,8.4  C55.5,33.4,59.2,37.2,63.8,37.2"/>
<path style="fill:#D24D51;" d="M85.9,28.8c4.6,0,8.4-3.7,8.4-8.4c0-4.6-3.7-8.4-8.4-8.4c-4.6,0-8.4,3.7-8.4,8.4  C77.6,25.1,81.3,28.8,85.9,28.8"/>
<path style="fill:#D56567;" d="M122.4,29.4c4.6,0,8.4-3.7,8.4-8.4c0-4.6-3.7-8.4-8.4-8.4c-4.6,0-8.4,3.7-8.4,8.4  C114.1,25.7,117.8,29.4,122.4,29.4"/>
<path style="fill:#E8827A;" d="M20.5,57.2c4.6,0,8.4-3.7,8.4-8.4c0-4.6-3.7-8.4-8.4-8.4s-8.4,3.7-8.4,8.4  C12.2,53.5,15.9,57.2,20.5,57.2"/>
<path style="fill:#D56567;" d="M33.5,80.6c4.6,0,8.4-3.7,8.4-8.4c0-4.6-3.7-8.4-8.4-8.4c-4.6,0-8.4,3.7-8.4,8.4  C25.1,76.9,28.9,80.6,33.5,80.6"/>
<path style="fill:#D56567;" d="M45.5,101.2c4.6,0,8.4-3.7,8.4-8.4s-3.7-8.4-8.4-8.4s-8.4,3.7-8.4,8.4S40.9,101.2,45.5,101.2"/>
<path style="fill:#D24D51;" d="M63.7,114.5c4.6,0,8.4-3.7,8.4-8.4s-3.7-8.4-8.4-8.4c-4.6,0-8.4,3.7-8.4,8.4S59.1,114.5,63.7,114.5"/>
<path style="fill:#E8827A;" d="M87.9,109.8c4.6,0,8.4-3.7,8.4-8.4s-3.7-8.4-8.4-8.4c-4.6,0-8.4,3.7-8.4,8.4S83.3,109.8,87.9,109.8"/>
<path style="fill:#D56567;" d="M109,110c4.6,0,8.4-3.7,8.4-8.4s-3.7-8.4-8.4-8.4c-4.6,0-8.4,3.7-8.4,8.4S104.4,110,109,110"/>
<path style="fill:#E8827A;" d="M109,128.6c4.6,0,8.4-3.7,8.4-8.4c0-4.6-3.7-8.4-8.4-8.4c-4.6,0-8.4,3.7-8.4,8.4  C100.7,124.9,104.4,128.6,109,128.6"/>
<path style="fill:#D24D51;" d="M128,133.7c4.6,0,8.4-3.7,8.4-8.4c0-4.6-3.7-8.4-8.4-8.4c-4.6,0-8.4,3.7-8.4,8.4  C119.7,130,123.4,133.7,128,133.7"/>
<path style="fill:#D56567;" d="M80.3,132.5c4.6,0,8.4-3.7,8.4-8.4c0-4.6-3.7-8.4-8.4-8.4c-4.6,0-8.4,3.7-8.4,8.4  C71.9,128.8,75.7,132.5,80.3,132.5"/>
<path style="fill:#D56567;" d="M53.7,137.9c4.6,0,8.4-3.7,8.4-8.4c0-4.6-3.7-8.4-8.4-8.4c-4.6,0-8.4,3.7-8.4,8.4  C45.3,134.1,49.1,137.9,53.7,137.9"/>
<path style="fill:#D24D51;" d="M10.6,129.6c4.6,0,8.4-3.7,8.4-8.4c0-4.6-3.7-8.4-8.4-8.4s-8.4,3.7-8.4,8.4  C2.3,125.8,6,129.6,10.6,129.6"/>
<path style="fill:#E8827A;" d="M58.5,84.4c4.6,0,8.4-3.7,8.4-8.4c0-4.6-3.7-8.4-8.4-8.4c-4.6,0-8.4,3.7-8.4,8.4  C50.1,80.6,53.9,84.4,58.5,84.4"/>
<path style="fill:#E8827A;" d="M78.4,92.5c4.6,0,8.4-3.7,8.4-8.4c0-4.6-3.7-8.4-8.4-8.4s-8.4,3.7-8.4,8.4  C70.1,88.8,73.8,92.5,78.4,92.5"/>
<path style="fill:#EDAEA5;" d="M106.6,88.5c4.6,0,8.4-3.7,8.4-8.4s-3.7-8.4-8.4-8.4s-8.4,3.7-8.4,8.4S102,88.5,106.6,88.5"/>
<path style="fill:#D56567;" d="M127.5,96.9c4.6,0,8.4-3.7,8.4-8.4c0-4.6-3.7-8.4-8.4-8.4s-8.4,3.7-8.4,8.4  C119.1,93.2,122.9,96.9,127.5,96.9"/>
<path style="fill:#E8827A;" d="M45.4,58c4.6,0,8.4-3.7,8.4-8.4c0-4.6-3.7-8.4-8.4-8.4c-4.6,0-8.4,3.7-8.4,8.4  C37,54.3,40.8,58,45.4,58"/>
<path style="fill:#D56567;" d="M66.5,60.6c4.6,0,8.4-3.7,8.4-8.4c0-4.6-3.7-8.4-8.4-8.4s-8.4,3.7-8.4,8.4  C58.2,56.8,61.9,60.6,66.5,60.6"/>
<path style="fill:#D56567;" d="M88.7,48.9c4.6,0,8.4-3.7,8.4-8.4c0-4.6-3.7-8.4-8.4-8.4c-4.6,0-8.4,3.7-8.4,8.4  C80.4,45.2,84.1,48.9,88.7,48.9"/>
<path style="fill:#EDAEA5;" d="M110.6,49.6c4.6,0,8.4-3.7,8.4-8.4c0-4.6-3.7-8.4-8.4-8.4c-4.6,0-8.4,3.7-8.4,8.4  C102.3,45.9,106,49.6,110.6,49.6"/>
<path style="fill:#D56567;" d="M93,72.1c4.6,0,8.4-3.7,8.4-8.4s-3.7-8.4-8.4-8.4c-4.6,0-8.4,3.7-8.4,8.4S88.4,72.1,93,72.1"/>
<path style="fill:#EDAEA5;" d="M118.5,66.6c4.6,0,8.4-3.7,8.4-8.4s-3.7-8.4-8.4-8.4c-4.6,0-8.4,3.7-8.4,8.4S113.9,66.6,118.5,66.6"/>
<path style="fill:#FFFFFF;" d="M135.6,30.4l3.4-3.3c0.1-0.1,0.2-0.2,0.2-0.3c0-0.1,0-0.1-0.1-0.2l-1-0.8c-0.2-0.1-0.2-0.2-0.4-0.2  c-0.1,0-0.2,0.1-0.3,0.2l-4,4v-8.2c0-0.4,0-0.4-0.2-0.4c-0.1,0-0.3,0-0.3,0.1l-1.7,0.4c-0.2,0-0.4,0.1-0.4,0.4v13.9  c0,0.2,0,0.3,0.3,0.3h2c0.2,0,0.3-0.1,0.3-0.3v-4.5h0l3.8,4.9c0.1,0.1,0.2,0.2,0.2,0.2s0.2,0,0.2-0.1l1.8-1c0.1,0,0.1-0.1,0.1-0.2  c0-0.1-0.1-0.2-0.2-0.3L135.6,30.4z M128.1,33.8c0-0.1-0.1-0.1-0.1-0.1c-0.4,0-0.8,0.7-1.8,0.7c-1.6,0-2.1-1.1-2.1-3.3  c0-2.4,0.6-3.5,2-3.5c1.1,0,1.8,0.8,2,0.8c0.1,0,0.1-0.1,0.1-0.1l0.8-1.3c0-0.1,0.1-0.1,0.1-0.2c0-0.6-1.8-1.3-2.9-1.3  c-3.1,0-4.8,2.2-4.8,5.7c0,3.5,1.7,5.3,4.6,5.3c1.2,0,2.9-0.6,2.9-1.1c0-0.1,0-0.1-0.1-0.2L128.1,33.8z M119,35.9  c0.1,0,0.2-0.1,0.2-0.2c0-0.5-0.4-0.3-0.4-3.2V26c0-0.4,0-0.4-0.1-0.4c-0.1,0-0.3,0.1-0.4,0.1l-1.7,0.4c-0.2,0.1-0.4,0.1-0.4,0.4  v7.3c-0.3,0.2-1,0.6-1.8,0.6c-1.1,0-1.2-1-1.2-1.7V26c0-0.4,0-0.4-0.2-0.4c-0.1,0-0.3,0.1-0.3,0.1L111,26c-0.2,0.1-0.4,0.1-0.4,0.4  v7.1c0,2.5,1.6,3,2.7,3c1.6,0,2.6-0.7,3.2-1.2c0.2,0.8,0.4,1.2,0.7,1.2c0.1,0,0.2,0,0.3-0.1L119,35.9z M106,28.9  c0.3-0.3,0.9-1,1.6-1c0.5,0,0.8,0.2,1,0.2c0.1,0,0.1-0.1,0.2-0.2l0.6-1.7c0,0,0-0.1,0-0.2c0-0.3-0.6-0.5-1.2-0.5  c-1.4,0-2.2,1.2-2.6,1.6c-0.1-0.7-0.5-1.6-0.8-1.6c-0.1,0-0.2,0.1-0.3,0.1l-1.6,0.6c-0.1,0-0.2,0.1-0.2,0.2c0,0.5,0.5,0.8,0.5,3.1  v6.3c0,0.2,0,0.3,0.3,0.3h2c0.2,0,0.3-0.1,0.3-0.3V28.9z M95,21.6c0-0.4,0-0.4-0.2-0.4c0,0-0.2,0.1-0.3,0.1l-1.7,0.4  c-0.2,0.1-0.4,0.1-0.4,0.4v11.6c0,0.4,0,0.9-0.1,1.3c-0.1,0.7-0.4,0.9-0.4,1.1c0,0.1,0.1,0.1,0.2,0.2l1.7,0.4c0.1,0,0.2,0,0.3,0  c0.3,0,0.5-0.7,0.6-0.9c0.3,0.3,0.8,0.9,2,0.9c2.8,0,4.3-2.2,4.3-5.8c0-2.7-0.8-5.2-3.6-5.2c-1.1,0-1.9,0.6-2.3,0.9V21.6z M95,28.3  c0.3-0.2,0.7-0.7,1.4-0.7c1.6,0,1.9,1.6,1.9,3.3c0,1.6-0.4,3.5-2.3,3.5c-0.6,0-0.9-0.3-1-0.4V28.3z M89.8,26.8  c0-0.1,0.1-0.2,0.1-0.3c0-0.5-2-1-3.2-1c-2.2,0-3.7,1.5-3.7,3.4c0,1.2,0.6,1.9,1.2,2.3c1.4,0.9,3.4,0.9,3.4,2.1c0,0.7-0.6,1-1.3,1  c-1.3,0-2.9-0.9-3-0.9c-0.1,0-0.1,0.1-0.2,0.2l-0.5,1.2c0,0.1-0.1,0.2-0.1,0.3c0,0.6,2.4,1.3,3.9,1.3c2.2,0,3.5-1.4,3.5-3.3  c0-1.2-0.6-2-1.4-2.5c-1.5-1-3.3-0.9-3.3-2c0-0.7,0.6-1,1.4-1c1.3,0,2.3,0.5,2.4,0.5c0,0,0.1-0.1,0.2-0.2L89.8,26.8z M80.5,28.6  c0-2.5-1.6-3-2.7-3c-1.6,0-2.6,0.9-3.2,1.4c-0.2-1-0.4-1.4-0.7-1.4c-0.1,0-0.2,0-0.3,0.1l-1.6,0.5c-0.1,0-0.2,0.1-0.2,0.2  c0,0.5,0.4,0.3,0.4,3.2v6.3c0,0.2,0,0.3,0.3,0.3h2c0.2,0,0.3-0.1,0.3-0.3v-7.3c0.3-0.2,1-0.8,1.8-0.8c1.1,0,1.2,1,1.2,1.7v6.4  c0,0.2,0,0.3,0.3,0.3h2c0.2,0,0.3-0.1,0.3-0.3V28.6z M69.4,28.6c0-2.5-1.6-3-2.7-3c-1.6,0-2.6,0.9-3.2,1.4c-0.2-1-0.4-1.4-0.7-1.4  c-0.1,0-0.2,0-0.3,0.1L61,26.1c-0.1,0-0.2,0.1-0.2,0.2c0,0.5,0.4,0.3,0.4,3.2v6.3c0,0.2,0,0.3,0.3,0.3h2c0.2,0,0.3-0.1,0.3-0.3v-7.3  c0.3-0.2,1-0.8,1.8-0.8c1.1,0,1.2,1,1.2,1.7v6.4c0,0.2,0,0.3,0.3,0.3h2c0.2,0,0.3-0.1,0.3-0.3V28.6z M58.9,34.6  c0-0.4-0.1-0.4-0.4-0.4h-1.1V23.9h1.1c0.4,0,0.4-0.1,0.4-0.4v-1.1c0-0.4-0.1-0.4-0.4-0.4h-5.1c-0.4,0-0.4,0.1-0.4,0.4v1.1  c0,0.4,0.1,0.4,0.4,0.4h1.1v10.2h-1.1c-0.4,0-0.4,0.1-0.4,0.4v1.1c0,0.4,0.1,0.4,0.4,0.4h5.1c0.4,0,0.4-0.1,0.4-0.4V34.6z"/>
<path style="fill:#FFFFFF;" d="M134.9,9.9c0.3-0.4,1.2-1.3,2-1.3c0.6,0,1.1,0.3,1.2,0.3c0.1,0,0.2-0.2,0.2-0.2l0.8-2.2  c0-0.1,0.1-0.2,0.1-0.3c0-0.3-0.8-0.6-1.5-0.6c-1.8,0-2.8,1.5-3.3,2.1c-0.1-0.9-0.7-2.1-1-2.1c-0.1,0-0.2,0.1-0.3,0.1l-2,0.8  c-0.1,0.1-0.2,0.1-0.2,0.2c0,0.6,0.7,1.1,0.7,4v8c0,0.3,0.1,0.4,0.4,0.4h2.6c0.3,0,0.4-0.1,0.4-0.4V9.9z M128.5,12.6  c0-4.2-2.2-7-5.7-7c-3.6,0-5.7,2.7-5.7,7c0,4.2,2.2,7,5.7,7C126.4,19.5,128.5,16.8,128.5,12.6 M122.8,16.9c-1.8,0-2.2-1.9-2.2-4.3  c0-2.5,0.3-4.3,2.2-4.3c1.8,0,2.2,1.9,2.2,4.3C125,15.1,124.7,16.9,122.8,16.9 M114.1,9.8c0-2.3-0.6-4.2-3.4-4.2  c-1.9,0-2.9,0.9-3.6,1.5V0.6c0-0.4-0.1-0.6-0.3-0.6c-0.1,0-0.3,0.1-0.4,0.1l-2.2,0.4c-0.3,0.1-0.5,0.1-0.5,0.5v17.7  c0,0.3,0.1,0.4,0.4,0.4h2.6c0.3,0,0.4-0.1,0.4-0.4V9.5c0.3-0.3,1.1-1.1,2.2-1.1c1.3,0,1.5,1.2,1.5,2.2v8.1c0,0.3,0.1,0.4,0.4,0.4  h2.6c0.3,0,0.4-0.1,0.4-0.4V9.8z M100.5,16.1c-0.1-0.1-0.1-0.1-0.2-0.1c-0.5,0-1,0.9-2.3,0.9c-2,0-2.7-1.3-2.7-4.2  c0-3,0.8-4.4,2.6-4.4c1.4,0,2.2,1.1,2.5,1.1c0.1,0,0.1-0.1,0.2-0.1l1-1.7c0-0.1,0.1-0.2,0.1-0.2c0-0.8-2.3-1.6-3.7-1.6  c-3.9,0-6.1,2.8-6.1,7.2c0,4.5,2.2,6.7,5.9,6.7c1.6,0,3.7-0.8,3.7-1.4c0-0.1-0.1-0.2-0.1-0.3L100.5,16.1z M87,9.9  c0.3-0.4,1.2-1.3,2-1.3c0.6,0,1.1,0.3,1.2,0.3c0.1,0,0.2-0.2,0.2-0.2l0.8-2.2c0-0.1,0.1-0.2,0.1-0.3c0-0.3-0.8-0.6-1.5-0.6  c-1.8,0-2.8,1.5-3.3,2.1c-0.1-0.9-0.7-2.1-1-2.1c-0.1,0-0.2,0.1-0.3,0.1l-2,0.8c-0.1,0.1-0.2,0.1-0.2,0.2c0,0.6,0.7,1.1,0.7,4v8  c0,0.3,0.1,0.4,0.4,0.4h2.6c0.3,0,0.4-0.1,0.4-0.4V9.9z M73,11c0.1-0.7,0.2-3,2.2-3c1.8,0,1.9,1.9,1.9,3H73z M79.5,16.1  c-0.1-0.1-0.2-0.2-0.3-0.2c-0.4,0-1.4,0.9-3.3,0.9c-2.5,0-2.9-1.8-2.9-3.3h7.1c0.5,0,0.6-0.2,0.6-0.7c0-3.2-0.8-7.2-5.3-7.2  c-3.5,0-5.8,2.9-5.8,7.1c0,4.9,2.4,6.8,5.9,6.8c2.1,0,4.7-0.9,4.7-1.6c0-0.1,0-0.2-0.1-0.3L79.5,16.1z M66.9,9.8  c0-2.3-0.6-4.2-3.1-4.2c-2.2,0-3.3,1.1-4.1,1.8c-0.3-1.1-1.6-1.8-2.7-1.8c-2.1,0-3.2,1.1-4,1.8c-0.3-1.2-0.5-1.8-0.8-1.8  c-0.1,0-0.2,0-0.4,0.1l-2,0.7c-0.2,0.1-0.3,0.2-0.3,0.3c0,0.6,0.5,0.4,0.5,4.1v8c0,0.3,0.1,0.4,0.4,0.4h2.6c0.3,0,0.4-0.1,0.4-0.4  V9.5c0.3-0.3,1.2-1.1,2.3-1.1c1,0,1.1,1.2,1.1,2.2v8.1c0,0.3,0.1,0.4,0.4,0.4h2.6c0.3,0,0.4-0.1,0.4-0.4V9.5  c0.3-0.3,1.2-1.1,2.3-1.1c1,0,1.1,1.2,1.1,2.2v8.1c0,0.3,0.1,0.4,0.4,0.4h2.6c0.3,0,0.4-0.1,0.4-0.4V9.8z M46.3,9.8  c0-2.3-0.6-4.2-3.1-4.2c-2.2,0-3.3,1.1-4.1,1.8c-0.3-1.1-1.6-1.8-2.7-1.8c-2.1,0-3.2,1.1-4,1.8c-0.3-1.2-0.5-1.8-0.8-1.8  c-0.1,0-0.2,0-0.4,0.1l-2,0.7c-0.2,0.1-0.3,0.2-0.3,0.3c0,0.6,0.5,0.4,0.5,4.1v8c0,0.3,0.1,0.4,0.4,0.4h2.6c0.3,0,0.4-0.1,0.4-0.4  V9.5c0.3-0.3,1.2-1.1,2.3-1.1c1,0,1.1,1.2,1.1,2.2v8.1c0,0.3,0.1,0.4,0.4,0.4h2.6c0.3,0,0.4-0.1,0.4-0.4V9.5  c0.3-0.3,1.2-1.1,2.3-1.1c1,0,1.1,1.2,1.1,2.2v8.1c0,0.3,0.1,0.4,0.4,0.4H46c0.3,0,0.4-0.1,0.4-0.4V9.8z M22.6,16.1  c-0.3,0.3-1,1-2,1c-1,0-1.7-0.8-1.7-1.8c0-2.3,3.1-2.1,3.7-2.1V16.1z M26.3,18.6c0.1-0.1,0.2-0.1,0.2-0.2c0-0.5-0.7-0.9-0.7-3.4V9.9  c0-2.7-1.2-4.2-4.5-4.2c-2,0-4.6,0.6-4.6,1.2c0,0.1,0,0.2,0.1,0.3l0.5,1.6c0,0.1,0.1,0.3,0.3,0.3c0.3,0,1.8-0.8,3.3-0.8  c1.7,0,1.9,0.8,1.9,2V11c-2.1,0-6.9,0-6.9,4.5c0,2.5,1.5,4.1,4,4.1c2,0,2.9-1.1,3.4-1.6c0.1,0.7,0.5,1.6,0.8,1.6  c0.1,0,0.2-0.1,0.3-0.1L26.3,18.6z M6,11.1L6,11.1l6.1,8.1c0.1,0.1,0.3,0.3,0.4,0.3c0.1,0,0.3-0.1,0.5-0.2l2.1-1.1  c0.2-0.1,0.3-0.2,0.3-0.3c0-0.3-0.1-0.3-0.2-0.4L9.1,9.8l5.6-7.4c0.1-0.1,0.2-0.2,0.2-0.4c0-0.1-0.2-0.2-0.3-0.3l-1.8-0.9  c-0.2-0.1-0.3-0.2-0.5-0.2c-0.2,0-0.4,0.2-0.4,0.3L6,9H6V1.6C6,1.1,5.9,1,5.4,1H3C2.5,1,2.4,1.1,2.4,1.6v17c0,0.5,0.1,0.6,0.6,0.6  h2.5C5.9,19.1,6,19,6,18.5V11.1z"/>
</svg>
